<svg xmlns="http://www.w3.org/2000/svg" viewBox="0 0 48.414 50"><defs><style>.cls-1{fill:#e98024}</style></defs><g id="Group_44" data-name="Group 44" transform="translate(-149.11 -9.3)"><path id="Path_88" data-name="Path 88" class="cls-1" d="M160.551 17.984l-8.382 6-3.059-4.529 13.618-9.765h3.765v47.735h-5.941z" transform="translate(0 .757)"/><path id="Path_89" data-name="Path 89" class="cls-1" d="M167.249 55.976a21.008 21.008 0 0 1-6.706-9A32.994 32.994 0 0 1 158.22 34.3a33.1 33.1 0 0 1 2.323-12.676 20.952 20.952 0 0 1 6.677-9 16.883 16.883 0 0 1 20.118 0 21.188 21.188 0 0 1 6.676 9 32.994 32.994 0 0 1 2.324 12.676 33.666 33.666 0 0 1-2.324 12.676 21.007 21.007 0 0 1-6.706 9 16.111 16.111 0 0 1-10 3.324 16.279 16.279 0 0 1-10.059-3.324zm16.941-4.882a16.42 16.42 0 0 0 4.529-6.941 28.842 28.842 0 0 0 1.618-9.853 28.264 28.264 0 0 0-1.618-9.853 16.42 16.42 0 0 0-4.529-6.941 10.614 10.614 0 0 0-13.824 0 16.42 16.42 0 0 0-4.529 6.941 28.842 28.842 0 0 0-1.617 9.853 28.265 28.265 0 0 0 1.618 9.853 16.42 16.42 0 0 0 4.529 6.941 10.16 10.16 0 0 0 6.912 2.559 10.359 10.359 0 0 0 6.912-2.559z" transform="translate(17.684)"/><path id="Path_90" data-name="Path 90" class="cls-1" d="M182.559 55.976a21.007 21.007 0 0 1-6.706-9A32.994 32.994 0 0 1 173.53 34.3a33.1 33.1 0 0 1 2.323-12.676 20.952 20.952 0 0 1 6.677-9 16.883 16.883 0 0 1 20.118 0 21.188 21.188 0 0 1 6.677 9 32.994 32.994 0 0 1 2.323 12.676 33.666 33.666 0 0 1-2.323 12.676 21.008 21.008 0 0 1-6.706 9 16.795 16.795 0 0 1-20.059 0zm16.912-4.882A16.42 16.42 0 0 0 204 44.153a28.843 28.843 0 0 0 1.618-9.853A28.265 28.265 0 0 0 204 24.447a16.42 16.42 0 0 0-4.529-6.941 10.614 10.614 0 0 0-13.824 0 16.42 16.42 0 0 0-4.529 6.941A28.842 28.842 0 0 0 179.5 34.3a28.265 28.265 0 0 0 1.618 9.853 16.42 16.42 0 0 0 4.529 6.941 10.16 10.16 0 0 0 6.912 2.559 10.359 10.359 0 0 0 6.912-2.559z" transform="translate(47.404)"/><path id="Path_91" data-name="Path 91" class="cls-1" d="M219.424 31.918h-12.706v12.706h-4.882V31.918H189.13v-4.882h12.706V14.33h4.882v12.706h12.706z" transform="translate(77.686 9.764)"/></g></svg>