<svg id="Group_48" data-name="Group 48" xmlns="http://www.w3.org/2000/svg" viewBox="0 0 58.815 50"><defs><style>.cls-1{fill:#e98024}</style></defs><path id="Path_95" data-name="Path 95" class="cls-1" d="M11.461 8.821l-8.4 6.015L0 10.287 13.626.51h3.762v47.769h-5.927z" transform="translate(0 .605)"/><path id="Path_96" data-name="Path 96" class="cls-1" d="M20.026 48.119a14.563 14.563 0 0 1-5.8-5.14 13.016 13.016 0 0 1-2.1-7.218 11.815 11.815 0 0 1 2.209-7.087 15.421 15.421 0 0 1 5.752-4.79V23.6a13.857 13.857 0 0 1-4.571-4.44 10.5 10.5 0 0 1-1.772-5.752 12.921 12.921 0 0 1 1.859-6.846A12.756 12.756 0 0 1 20.77 1.75 15.884 15.884 0 0 1 28.272 0a15.743 15.743 0 0 1 7.437 1.75 12.9 12.9 0 0 1 5.161 4.812 13.122 13.122 0 0 1 1.859 6.846 10.448 10.448 0 0 1-1.772 5.752 14.083 14.083 0 0 1-4.506 4.44v.284a15.055 15.055 0 0 1 5.752 4.79 11.815 11.815 0 0 1 2.209 7.087 12.861 12.861 0 0 1-2.122 7.218 15.012 15.012 0 0 1-5.84 5.14A17.865 17.865 0 0 1 28.272 50a18.009 18.009 0 0 1-8.246-1.881zm15.4-6.255a8.119 8.119 0 0 0 2.887-6.452 7.979 7.979 0 0 0-2.887-6.321 10.542 10.542 0 0 0-7.152-2.472 10.848 10.848 0 0 0-7.2 2.472 7.952 7.952 0 0 0-2.931 6.321 8.059 8.059 0 0 0 2.931 6.452 10.7 10.7 0 0 0 7.2 2.472 10.581 10.581 0 0 0 7.15-2.472zM34.33 18.92a7.331 7.331 0 0 0 2.384-5.665A6.984 6.984 0 0 0 34.308 7.7a8.943 8.943 0 0 0-6.037-2.056 9 9 0 0 0-6.1 2.056 6.953 6.953 0 0 0-2.406 5.556 7.306 7.306 0 0 0 2.406 5.665 8.79 8.79 0 0 0 6.1 2.165 8.642 8.642 0 0 0 6.059-2.166z" transform="translate(14.401)"/></svg>