<svg id="Group_60" data-name="Group 60" xmlns="http://www.w3.org/2000/svg" viewBox="0 0 75.045 50"><defs><style>.cls-1{fill:#e98024}</style></defs><path id="Path_102" data-name="Path 102" class="cls-1" d="M0 42.928q2.162-2.162 8.581-8.694t8.941-9.257a39.15 39.15 0 0 0 4.82-6.014 10.344 10.344 0 0 0 1.258-5.247 7.7 7.7 0 0 0-1.081-3.941 8.378 8.378 0 0 0-3.15-2.975 9.953 9.953 0 0 0-4.91-1.149A8.294 8.294 0 0 0 8.423 7.86a10.23 10.23 0 0 0-2.973 4.775L0 10.473a15.776 15.776 0 0 1 7.41-8.761A14.574 14.574 0 0 1 14.662 0a15.78 15.78 0 0 1 7.793 1.892 13.967 13.967 0 0 1 5.27 5.023 13.079 13.079 0 0 1 1.869 6.779q0 7.331-7.68 15.158L7.613 43.243h22.545V48.9H0z"/><path id="Path_103" data-name="Path 103" class="cls-1" d="M25.444 46.667a21.174 21.174 0 0 1-6.712-9.009 33.119 33.119 0 0 1-2.342-12.68A33.2 33.2 0 0 1 18.732 12.3 21.228 21.228 0 0 1 25.4 3.288 16.307 16.307 0 0 1 35.467 0a16.077 16.077 0 0 1 10.045 3.311 21.09 21.09 0 0 1 6.667 9.009A33.119 33.119 0 0 1 54.521 25a33.2 33.2 0 0 1-2.342 12.68 20.952 20.952 0 0 1-6.712 9.009A16.1 16.1 0 0 1 35.444 50a16.152 16.152 0 0 1-10-3.333zm16.937-4.887a16.451 16.451 0 0 0 4.55-6.937A28.289 28.289 0 0 0 48.53 25a28.824 28.824 0 0 0-1.6-9.842 16.451 16.451 0 0 0-4.55-6.937 10.665 10.665 0 0 0-13.829 0A16.451 16.451 0 0 0 24 15.158 28.289 28.289 0 0 0 22.4 25a28.824 28.824 0 0 0 1.6 9.842 16.451 16.451 0 0 0 4.55 6.937 10.25 10.25 0 0 0 6.914 2.545 10.14 10.14 0 0 0 6.917-2.545z" transform="translate(20.524)"/></svg>