<svg data-name="Group 55" xmlns="http://www.w3.org/2000/svg" viewBox="0 0 82 82"><path data-name="Path 100" d="M55.657 51.943a.937.937 0 0 0 .936-.936V20.279a2.282 2.282 0 0 0-2.282-2.282H29.704a4.314 4.314 0 0 0-4.307 4.307v32.055a4.314 4.314 0 0 0 4.307 4.307h12.2v5.347l3.724-1.786 3.724 1.786v-5.348h6.295a.934.934 0 0 0 0-1.862h-.936v-4.85h.945zM27.269 22.297a2.447 2.447 0 0 1 2.435-2.444h2.731v30.19h-2.731a4.306 4.306 0 0 0-2.444.764zm14.647 34.5H29.704a2.443 2.443 0 0 1 0-4.879h12.2v4.879zm5.586 4.249l-1.862-.9-1.862.9v-9.122h3.724zm5.345-4.249h-3.482v-4.854h3.514zm-18.551-6.745V19.859h20a.424.424 0 0 1 .42.42v29.773h-20.42z" fill="#fff"/><path data-name="Path 101" d="M81 41A40 40 0 1 1 41 1a40 40 0 0 1 40 40z" fill="none" stroke="#fff" stroke-miterlimit="10" stroke-width="2"/></svg>