<svg xmlns="http://www.w3.org/2000/svg" width="124.46" height="100" viewBox="0 0 124.46 100"><defs><style>.b8a4508a-988e-4689-ab9d-d9afe3bc1df8{fill:#e38025}</style></defs><g id="f3ec21ef-dc3b-4de0-b985-b3811bbfbbd8" data-name="Layer 2"><g id="a599a4fa-95f1-4057-865e-eae6bc4eb0aa" data-name="svg"><path class="b8a4508a-988e-4689-ab9d-d9afe3bc1df8" d="M44.65 47.78a24 24 0 0 1-24.12-23.89 24.12 24.12 0 0 1 48.24 0 24 24 0 0 1-24.12 23.89zm0-45.78a22 22 0 0 0-22.08 21.89 22.08 22.08 0 0 0 44.16 0A22 22 0 0 0 44.65 2z"/><path class="b8a4508a-988e-4689-ab9d-d9afe3bc1df8" d="M44.65 47.78a24 24 0 0 1-24.12-23.89 24.12 24.12 0 0 1 48.24 0 24 24 0 0 1-24.12 23.89zm0-45.78a22 22 0 0 0-22.08 21.89 22.08 22.08 0 0 0 44.16 0A22 22 0 0 0 44.65 2zM83.15 100h-77A6.16 6.16 0 0 1 0 93.85a1.17 1.17 0 0 0 0-.43c0-23 20-41.63 44.65-41.63S89.3 70.46 89.3 93.42a1.49 1.49 0 0 1 0 .21 1.8 1.8 0 0 1 0 .22 6.16 6.16 0 0 1-6.15 6.15zm-38.5-46.18C21.15 53.82 2 71.59 2 93.42v.47A4.12 4.12 0 0 0 6.15 98h77a4.13 4.13 0 0 0 4.12-4.12v-.19a1.58 1.58 0 0 1 0-.28c-.03-21.85-19.14-39.59-42.62-39.59z"/><path class="b8a4508a-988e-4689-ab9d-d9afe3bc1df8" d="M83.15 100h-77A6.16 6.16 0 0 1 0 93.85a1.17 1.17 0 0 0 0-.43c0-23 20-41.63 44.65-41.63S89.3 70.46 89.3 93.42a1.49 1.49 0 0 1 0 .21 1.8 1.8 0 0 1 0 .22 6.16 6.16 0 0 1-6.15 6.15zm-38.5-46.18C21.15 53.82 2 71.59 2 93.42v.47A4.12 4.12 0 0 0 6.15 98h77a4.13 4.13 0 0 0 4.12-4.12v-.19a1.58 1.58 0 0 1 0-.28c-.03-21.85-19.14-39.59-42.62-39.59zM104 56.3h-.23a1.91 1.91 0 0 1-1.33-1.07v-.11l-1.87-5.18a19.83 19.83 0 0 1-4.83-.2h-.18l-2.32 5a2 2 0 0 1-1 1 1.71 1.71 0 0 1-1.48 0c-.26-.11-.6-.22-1-.33a11.78 11.78 0 0 1-2.37-1c-.42-.25-.83-.47-1.23-.68a13.18 13.18 0 0 1-1.9-1.12l-.11-.1a2 2 0 0 1-.41-2.26l2.28-5a20.42 20.42 0 0 1-3.36-3.56l-5.44 2h-.17a2 2 0 0 1-2-1 24.49 24.49 0 0 1-2.4-6.69 1.38 1.38 0 0 1-.12-.83 1.91 1.91 0 0 1 1.06-1.34h.11L78.89 32a19.41 19.41 0 0 1 .19-4.84v-.18l-6.38-2.89.13-.78a34 34 0 0 1 3.68-8.07l.51-.63 6.36 3.06a20.78 20.78 0 0 1 3.56-3.35L85.05 9.1a1.65 1.65 0 0 1 .08-1.56 1.51 1.51 0 0 1 1-.69 22.16 22.16 0 0 1 6.46-2.36 1.27 1.27 0 0 1 .82-.12 1.93 1.93 0 0 1 1.34 1.06v.11l1.87 5.19a19.45 19.45 0 0 1 4.84.19h.17l2.32-5a2 2 0 0 1 1.12-1 1.77 1.77 0 0 1 1.22 0 34.43 34.43 0 0 1 6.51 2.93 1.54 1.54 0 0 1 .79 1.08 1.78 1.78 0 0 1-.47 1.44l-2.22 4.84a20.4 20.4 0 0 1 3.35 3.56l5.44-1.95h.18a2 2 0 0 1 2 1 24.4 24.4 0 0 1 2.44 6.58 1.4 1.4 0 0 1 .13.84 1.91 1.91 0 0 1-1.07 1.33l-.11.05-5.18 1.87a19.83 19.83 0 0 1-.2 4.83v.18l5 2.32a1.81 1.81 0 0 1 1 2.33 41.78 41.78 0 0 1-2.73 6.33l-.13.15a2 2 0 0 1-2.26.41l-5-2.27a20.4 20.4 0 0 1-3.56 3.35l1.95 5.44v.18a2 2 0 0 1-1 2 22.29 22.29 0 0 1-6.59 2.45 1.38 1.38 0 0 1-.56.11zm-3.54-8.42h.06a2.12 2.12 0 0 1 1.59.74l.16.16 1.94 5.39a20.17 20.17 0 0 0 5.94-2.2v-.07l-1.88-5.21a1.65 1.65 0 0 1 .44-2l.16-.13a17.75 17.75 0 0 0 3.47-3.28 2.08 2.08 0 0 1 1.42-.67 1.34 1.34 0 0 1 .76.23l5 2.3a41.24 41.24 0 0 0 2.35-5.54l-5.08-2.33a1.73 1.73 0 0 1-1-1.79v-.42a17.16 17.16 0 0 0 .18-4.45v-.13a2.13 2.13 0 0 1 .72-1.58l.16-.17 5.4-1.94a22.9 22.9 0 0 0-2.19-5.94h-.08l-5.21 1.88a1.65 1.65 0 0 1-2-.44l-.13-.15a17.55 17.55 0 0 0-3.28-3.48 2.23 2.23 0 0 1-.59-.89 1.45 1.45 0 0 1 .15-1.29l2.36-5.15a34.93 34.93 0 0 0-5.6-2.45L103.43 12a1.74 1.74 0 0 1-1.79 1h-.41a17.24 17.24 0 0 0-4.46-.18h-.13a2.16 2.16 0 0 1-1.59-.82l-.16-.17L93 6.48a20.11 20.11 0 0 0-5.89 2.18l1.83 5.09a1.65 1.65 0 0 1-.44 2l-.15.13a17.26 17.26 0 0 0-3.48 3.28 2.31 2.31 0 0 1-.89.58 1.44 1.44 0 0 1-1.3-.15l-5-2.39a45.36 45.36 0 0 0-2.62 5.73l5.06 2.25a1.75 1.75 0 0 1 1 1.8l-.05.42a17.14 17.14 0 0 0-.18 4.45V32a2.13 2.13 0 0 1-.73 1.58l-.16.12-5.39 1.94a22.07 22.07 0 0 0 2.19 5.94h.07l5.22-1.87a1.66 1.66 0 0 1 2 .43l.12.16a18.13 18.13 0 0 0 3.28 3.48A1.74 1.74 0 0 1 88 46l-2.31 5a12.34 12.34 0 0 0 1.5.86c.43.23.88.46 1.33.73a9.32 9.32 0 0 0 2 .83l1 .34 2.32-5.06a1.73 1.73 0 0 1 1.79-1h.42a17.16 17.16 0 0 0 4.45.18zm-8.91 5.94zm-6-2.76zm34.7-7.16zm-.66-.7zm-21.28-.39a12.65 12.65 0 0 1-5-1 12.46 12.46 0 0 1-6.82-7.15 12.67 12.67 0 0 1 .51-9.88 12.65 12.65 0 0 1 23.11 1.32 12.09 12.09 0 0 1-.64 9.79 12.29 12.29 0 0 1-11.09 6.92zm-.22-22.93a10.24 10.24 0 0 0-9.29 5.78A10.49 10.49 0 0 0 107.67 35a10.07 10.07 0 0 0 .54-8.16 10.38 10.38 0 0 0-5.9-6.07 10.62 10.62 0 0 0-4.15-.89z"/></g></g></svg>