<svg version="1.1" id="Layer_1" xmlns="http://www.w3.org/2000/svg" x="0" y="0" viewBox="0 0 99.8 100" xml:space="preserve"><style>.st0{fill:#e58025}.st1{fill:#f2f2f2}</style><g id="f9444b65-7e54-4feb-9d44-f103fa4cdad1"><g id="bb6caeeb-2661-4599-af93-43a79b00ac67"><path class="st0" d="M49.7 87.2c-20.6 0-37.2-16.7-37.2-37.3 0-20.6 16.7-37.2 37.3-37.2C70.3 12.7 87 29.3 87 49.9S70.3 87.2 49.7 87.2zm0-72.6c-19.5 0-35.3 15.8-35.3 35.3 0 19.5 15.8 35.3 35.3 35.3C69.2 85.2 85 69.4 85 49.9c0-19.5-15.8-35.3-35.3-35.3z"/><path class="st0" d="M49.7 87.2c-20.6 0-37.2-16.7-37.2-37.3 0-20.6 16.7-37.2 37.3-37.2C70.3 12.7 87 29.3 87 49.9S70.3 87.2 49.7 87.2zm0-72.6c-19.5 0-35.3 15.8-35.3 35.3 0 19.5 15.8 35.3 35.3 35.3C69.2 85.2 85 69.4 85 49.9c0-19.5-15.8-35.3-35.3-35.3z"/><path class="st0" d="M49.7 61.3c-6.4 0-11.5-5.1-11.5-11.5s5.1-11.5 11.5-11.5 11.5 5.1 11.5 11.5c0 6.3-5.2 11.5-11.5 11.5zm0-21c-5.3 0-9.5 4.3-9.5 9.5s4.3 9.5 9.5 9.5 9.5-4.3 9.5-9.5c0-5.3-4.2-9.5-9.5-9.5 0-.1 0-.1 0 0z"/><path class="st0" d="M49.7 61.3c-6.4 0-11.5-5.1-11.5-11.5s5.1-11.5 11.5-11.5 11.5 5.1 11.5 11.5c0 6.3-5.2 11.5-11.5 11.5zm0-21c-5.3 0-9.5 4.3-9.5 9.5s4.3 9.5 9.5 9.5 9.5-4.3 9.5-9.5c0-5.3-4.2-9.5-9.5-9.5 0-.1 0-.1 0 0z"/><circle class="st0" cx="13.6" cy="50" r="12.6"/><path class="st0" d="M13.6 63.6C6.1 63.6 0 57.5 0 50s6.1-13.6 13.6-13.6S27.2 42.5 27.2 50s-6.1 13.6-13.6 13.6zm0-25.2C7.2 38.4 2 43.6 2 50s5.2 11.6 11.7 11.6S25.3 56.4 25.3 50c-.1-6.4-5.3-11.6-11.7-11.6z"/><circle class="st1" cx="13.6" cy="50" r="12.6"/><path class="st0" d="M13.6 63.6C6.1 63.6 0 57.5 0 50s6.1-13.6 13.6-13.6S27.2 42.5 27.2 50s-6.1 13.6-13.6 13.6zm0-25.2C7.2 38.4 2 43.6 2 50s5.2 11.6 11.7 11.6S25.3 56.4 25.3 50c-.1-6.4-5.3-11.6-11.7-11.6z"/><circle class="st0" cx="86.2" cy="49.8" r="12.6"/><path class="st0" d="M86.2 63.4c-7.5 0-13.6-6.1-13.6-13.6s6.1-13.6 13.6-13.6 13.6 6.1 13.6 13.6-6.1 13.6-13.6 13.6zm0-25.3c-6.4 0-11.6 5.2-11.6 11.6s5.2 11.7 11.6 11.7c6.4 0 11.7-5.2 11.7-11.7-.1-6.4-5.3-11.6-11.7-11.6z"/><circle class="st1" cx="86.2" cy="49.8" r="12.6"/><path class="st0" d="M86.2 63.4c-7.5 0-13.6-6.1-13.6-13.6s6.1-13.6 13.6-13.6 13.6 6.1 13.6 13.6-6.1 13.6-13.6 13.6zm0-25.3c-6.4 0-11.6 5.2-11.6 11.6s5.2 11.7 11.6 11.7c6.4 0 11.7-5.2 11.7-11.7-.1-6.4-5.3-11.6-11.7-11.6z"/><circle class="st0" cx="49.7" cy="13.6" r="12.6"/><path class="st0" d="M49.7 27.2c-7.5 0-13.6-6.1-13.6-13.6S42.1 0 49.7 0s13.6 6.1 13.6 13.6-6.1 13.6-13.6 13.6zm0-25.2C43.2 2 38 7.2 38 13.6c0 6.4 5.2 11.7 11.6 11.7 6.4 0 11.7-5.2 11.7-11.6v-.1C61.3 7.2 56.1 2 49.7 2z"/><circle class="st1" cx="49.7" cy="13.6" r="12.6"/><path class="st0" d="M49.7 27.2c-7.5 0-13.6-6.1-13.6-13.6S42.1 0 49.7 0s13.6 6.1 13.6 13.6-6.1 13.6-13.6 13.6zm0-25.2C43.2 2 38 7.2 38 13.6c0 6.4 5.2 11.7 11.6 11.7 6.4 0 11.7-5.2 11.7-11.6v-.1C61.3 7.2 56.1 2 49.7 2z"/><circle class="st0" cx="49.7" cy="86.4" r="12.6"/><path class="st0" d="M49.7 100c-7.5 0-13.6-6.1-13.6-13.6s6.1-13.6 13.6-13.6 13.6 6.1 13.6 13.6S57.2 100 49.7 100zm0-25.2C43.2 74.7 38 80 38 86.4 38 92.8 43.2 98 49.7 98s11.7-5.2 11.7-11.6c-.1-6.4-5.3-11.6-11.7-11.6z"/><circle class="st1" cx="49.7" cy="86.4" r="12.6"/><path class="st0" d="M49.7 100c-7.5 0-13.6-6.1-13.6-13.6s6.1-13.6 13.6-13.6 13.6 6.1 13.6 13.6S57.2 100 49.7 100zm0-25.2C43.2 74.7 38 80 38 86.4 38 92.8 43.2 98 49.7 98s11.7-5.2 11.7-11.6c-.1-6.4-5.3-11.6-11.7-11.6z"/><path class="st0" d="M50.4 85.4v-2.6c.7.1 1.4.4 2 .8l.9-1.3c-.9-.6-1.9-1-2.9-1.1v-.7h-.9v.7c-.8 0-1.6.3-2.2.8-.6.5-.9 1.2-.8 2 0 .7.2 1.4.7 1.8.7.5 1.5.8 2.3 1v2.7c-.9-.2-1.8-.6-2.5-1.2l-1 1.2c1 .9 2.2 1.4 3.5 1.5v1h.9v-1c.8 0 1.7-.3 2.3-.8.6-.5.9-1.2.9-2 0-.7-.2-1.4-.8-1.9-.7-.4-1.5-.8-2.4-.9zm-.9-.3c-.4-.1-.8-.3-1.1-.5-.2-.2-.3-.5-.3-.8 0-.3.1-.6.4-.8.3-.2.6-.4 1-.4v2.5zm2 4.1c-.3.2-.7.4-1.1.4v-2.5c.4.1.8.3 1.2.5.2.2.3.5.3.8-.1.4-.2.7-.4.8z"/><path class="st0" d="M50.4 85.4v-2.6c.7.1 1.4.4 2 .8l.9-1.3c-.9-.6-1.9-1-2.9-1.1v-.7h-.9v.7c-.8 0-1.6.3-2.2.8-.6.5-.9 1.2-.8 2 0 .7.2 1.4.7 1.8.7.5 1.5.8 2.3 1v2.7c-.9-.2-1.8-.6-2.5-1.2l-1 1.2c1 .9 2.2 1.4 3.5 1.5v1h.9v-1c.8 0 1.7-.3 2.3-.8.6-.5.9-1.2.9-2 0-.7-.2-1.4-.8-1.9-.7-.4-1.5-.8-2.4-.9zm-.9-.3c-.4-.1-.8-.3-1.1-.5-.2-.2-.3-.5-.3-.8 0-.3.1-.6.4-.8.3-.2.6-.4 1-.4v2.5zm2 4.1c-.3.2-.7.4-1.1.4v-2.5c.4.1.8.3 1.2.5.2.2.3.5.3.8-.1.4-.2.7-.4.8zM18.8 53.8l-1.1-1.4c-.4.4-.8.7-1.3 1-.5.2-1 .3-1.5.3-1.1 0-2.1-.6-2.6-1.7H16v-1.4h-4.1c0-.2 0-.5-.1-.7v-.6h4.1v-1.4h-3.8c.4-1.1 1.6-1.9 2.8-1.9.5 0 1.1.1 1.6.3.5.3 1 .6 1.3 1l1.1-1.4c-1-1.2-2.5-1.9-4-1.8-1.1 0-2.2.3-3.1 1-.8.9-1.5 1.9-1.8 3H8.3v1.4h1.4v.6c0 .3 0 .5.1.8H8.3v1.4H10c.3 1 1 1.9 1.9 2.6.9.6 1.9 1 2.9 1 1.5-.1 3-.8 4-2.1z"/><path class="st0" d="M18.8 53.8l-1.1-1.4c-.4.4-.8.7-1.3 1-.5.2-1 .3-1.5.3-1.1 0-2.1-.6-2.6-1.7H16v-1.4h-4.1c0-.2 0-.5-.1-.7v-.6h4.1v-1.4h-3.8c.4-1.1 1.6-1.9 2.8-1.9.5 0 1.1.1 1.6.3.5.3 1 .6 1.3 1l1.1-1.4c-1-1.2-2.5-1.9-4-1.8-1.1 0-2.2.3-3.1 1-.8.9-1.5 1.9-1.8 3H8.3v1.4h1.4v.6c0 .3 0 .5.1.8H8.3v1.4H10c.3 1 1 1.9 1.9 2.6.9.6 1.9 1 2.9 1 1.5-.1 3-.8 4-2.1zM46.3 13.4v1.3H49l.1.1v.8h-2.8v1.3h2.8v1.8h1.8v-1.8h2.7v-1.3h-2.7v-.8l.1-.1h2.6v-1.3h-1.8l3-4.9h-1.9l-2.8 4.7H50l-2.8-4.7h-1.8l2.9 4.9z"/><path class="st0" d="M46.3 13.4v1.3H49l.1.1v.8h-2.8v1.3h2.8v1.8h1.8v-1.8h2.7v-1.3h-2.7v-.8l.1-.1h2.6v-1.3h-1.8l3-4.9h-1.9l-2.8 4.7H50l-2.8-4.7h-1.8l2.9 4.9zM86.6 46.7c.3-.3.7-.4 1.2-.4.7 0 1.3.4 1.5 1l1.2-1c-.6-1-1.7-1.7-2.8-1.6-1.7-.1-3.1 1.1-3.2 2.8v2.4h-1.2v1.4h1.2v2.6h-1.2v1.5h7.2v-1.5h-4.3v-2.6h2.4v-1.4h-2.4V48c-.1-.5 0-1 .4-1.3z"/><path class="st0" d="M86.6 46.7c.3-.3.7-.4 1.2-.4.7 0 1.3.4 1.5 1l1.2-1c-.6-1-1.7-1.7-2.8-1.6-1.7-.1-3.1 1.1-3.2 2.8v2.4h-1.2v1.4h1.2v2.6h-1.2v1.5h7.2v-1.5h-4.3v-2.6h2.4v-1.4h-2.4V48c-.1-.5 0-1 .4-1.3z"/></g></g></svg>