<svg xmlns="http://www.w3.org/2000/svg" width="81.3" height="100" viewBox="0 0 81.3 100"><defs><style>.ef17322a-e687-4223-b7e1-381222eb9853{fill:#e38025}</style></defs><g id="a96b02a7-b24e-4b07-9327-cd5b529736bb" data-name="Layer 2"><g id="b89b047e-9453-46a5-9a76-273573bd68a7" data-name="svg"><path class="ef17322a-e687-4223-b7e1-381222eb9853" d="M40.75 50.22l-4.3-8.72-9.63-1.4 7-6.79-1.65-9.58 8.61 4.52 8.61-4.52-1.65 9.58 7 6.79-9.62 1.4zM31 38.73l6.71 1 3 6.08 3-6.08 6.72-1L45.61 34l1.15-6.69-6 3.16-6-3.16L35.89 34z"/><path class="ef17322a-e687-4223-b7e1-381222eb9853" d="M40.75 50.22l-4.3-8.72-9.63-1.4 7-6.79-1.65-9.58 8.61 4.52 8.61-4.52-1.65 9.58 7 6.79-9.62 1.4zM31 38.73l6.71 1 3 6.08 3-6.08 6.72-1L45.61 34l1.15-6.69-6 3.16-6-3.16L35.89 34z"/><path class="ef17322a-e687-4223-b7e1-381222eb9853" d="M27.7 70.18a3.7 3.7 0 0 1-3.31-2L19 57.63a2.42 2.42 0 0 0-.87-.84L7.68 51.45A3.77 3.77 0 0 1 5.84 47l3.62-11.29a1.58 1.58 0 0 0 0-1.09L5.85 23.3a3.58 3.58 0 0 1 1.83-4.48l10.53-5.37a2.42 2.42 0 0 0 .84-.87l5.34-10.47A3.71 3.71 0 0 1 28.86.17L40 3.9a1.61 1.61 0 0 0 1.08 0L52.43.28a3.71 3.71 0 0 1 4.48 1.84l5.37 10.31a2.53 2.53 0 0 0 .87.85l10.47 5.34a3.76 3.76 0 0 1 1.84 4.46l-3.62 11.27a1.63 1.63 0 0 0 0 1.09l3.64 11.32a3.72 3.72 0 0 1-1.84 4.48l-10.55 5.37a2.51 2.51 0 0 0-.84.87L56.91 68a4 4 0 0 1-4.23 2h-.14l-11.26-3.62a1.64 1.64 0 0 0-1.09 0L28.87 70a3.67 3.67 0 0 1-1.17.18zM27.73 2a1.78 1.78 0 0 0-1.59 1l-5.37 10.53a4.61 4.61 0 0 1-1.61 1.64l-10.59 5.4a1.65 1.65 0 0 0-.89 2.05L11.33 34a3.47 3.47 0 0 1 0 2.36L7.71 47.57a1.83 1.83 0 0 0 .88 2.14l10.51 5.36a4.5 4.5 0 0 1 1.63 1.61l5.41 10.59a1.75 1.75 0 0 0 2.12.86l11.27-3.62a3.47 3.47 0 0 1 2.36 0l11.17 3.59a2 2 0 0 0 2.1-1l5.37-10.53a4.66 4.66 0 0 1 1.61-1.63l10.59-5.41a1.74 1.74 0 0 0 .86-2.12L70 36.11a3.56 3.56 0 0 1 0-2.37l3.59-11.24a1.81 1.81 0 0 0-.88-2.15L62.2 15a4.55 4.55 0 0 1-1.63-1.6L55.17 3A1.76 1.76 0 0 0 53 2.14L41.78 5.76a3.5 3.5 0 0 1-2.37 0L28.26 2a2 2 0 0 0-.53 0zm12.92 54.61a21.53 21.53 0 1 1 21.53-21.53 21.55 21.55 0 0 1-21.53 21.53zm0-41.1a19.57 19.57 0 1 0 19.57 19.57 19.59 19.59 0 0 0-19.57-19.57z"/><path class="ef17322a-e687-4223-b7e1-381222eb9853" d="M24.52 99.94a2 2 0 0 1-1.78-1.11l-6.6-12-13.62 2.61a2.08 2.08 0 0 1-2.08-.76 2 2 0 0 1-.22-2.19l17.28-28.3 5.08 10.65A6 6 0 0 0 27.69 72c.77-.16 5.72-2 10.15-3.8l2.2-.85-13.57 31.32a2.16 2.16 0 0 1-1.95 1.27zm-8.4-15.06A1.93 1.93 0 0 1 17.88 86l6.59 11.94c.05.07.16.06.23-.07L36.36 70.9c-5.19 2-8.08 3.06-8.62 3.06a7.81 7.81 0 0 1-6.86-4.14l-3.12-7.58L2 87.34s-.05.09 0 .14a.15.15 0 0 0 .15 0l13.55-2.59a2.2 2.2 0 0 1 .42-.01zM56.75 100h-.06a2.12 2.12 0 0 1-1.84-1.17L41.28 67.35l2.18.85C48 69.94 53 71.8 53.64 71.9a5.54 5.54 0 0 0 5-3.07v-.09l5.09-10.65L81.08 86.5a2.05 2.05 0 0 1-.16 2.12 2.22 2.22 0 0 1-2.06.93L65.25 87h-.08l-6.62 12a2.05 2.05 0 0 1-1.8 1zm-.12-2a.13.13 0 0 0 .11.05.12.12 0 0 0 .1 0l6.6-12a2 2 0 0 1 2.23-1l13.48 2.57c.07 0 .14-.08.16-.11a.13.13 0 0 0 0-.14L63.54 62.14l-3.14 7.61a7.49 7.49 0 0 1-6.84 4.11c-.53 0-3.43-1-8.64-3L56.63 98z"/><path class="ef17322a-e687-4223-b7e1-381222eb9853" d="M27.7 70.18a3.7 3.7 0 0 1-3.31-2L19 57.63a2.42 2.42 0 0 0-.87-.84L7.68 51.45A3.77 3.77 0 0 1 5.84 47l3.62-11.29a1.58 1.58 0 0 0 0-1.09L5.85 23.3a3.58 3.58 0 0 1 1.83-4.48l10.53-5.37a2.42 2.42 0 0 0 .84-.87l5.34-10.47A3.71 3.71 0 0 1 28.86.17L40 3.9a1.61 1.61 0 0 0 1.08 0L52.43.28a3.71 3.71 0 0 1 4.48 1.84l5.37 10.31a2.53 2.53 0 0 0 .87.85l10.47 5.34a3.76 3.76 0 0 1 1.84 4.46l-3.62 11.27a1.63 1.63 0 0 0 0 1.09l3.64 11.32a3.72 3.72 0 0 1-1.84 4.48l-10.55 5.37a2.51 2.51 0 0 0-.84.87L56.91 68a4 4 0 0 1-4.23 2h-.14l-11.26-3.62a1.64 1.64 0 0 0-1.09 0L28.87 70a3.67 3.67 0 0 1-1.17.18zM27.73 2a1.78 1.78 0 0 0-1.59 1l-5.37 10.53a4.61 4.61 0 0 1-1.61 1.64l-10.59 5.4a1.65 1.65 0 0 0-.89 2.05L11.33 34a3.47 3.47 0 0 1 0 2.36L7.71 47.57a1.83 1.83 0 0 0 .88 2.14l10.51 5.36a4.5 4.5 0 0 1 1.63 1.61l5.41 10.59a1.75 1.75 0 0 0 2.12.86l11.27-3.62a3.47 3.47 0 0 1 2.36 0l11.17 3.59a2 2 0 0 0 2.1-1l5.37-10.53a4.66 4.66 0 0 1 1.61-1.63l10.59-5.41a1.74 1.74 0 0 0 .86-2.12L70 36.11a3.56 3.56 0 0 1 0-2.37l3.59-11.24a1.81 1.81 0 0 0-.88-2.15L62.2 15a4.55 4.55 0 0 1-1.63-1.6L55.17 3A1.76 1.76 0 0 0 53 2.14L41.78 5.76a3.5 3.5 0 0 1-2.37 0L28.26 2a2 2 0 0 0-.53 0zm12.92 54.61a21.53 21.53 0 1 1 21.53-21.53 21.55 21.55 0 0 1-21.53 21.53zm0-41.1a19.57 19.57 0 1 0 19.57 19.57 19.59 19.59 0 0 0-19.57-19.57z"/><path class="ef17322a-e687-4223-b7e1-381222eb9853" d="M40.75 50.22l-4.3-8.72-9.63-1.4 7-6.79-1.65-9.58 8.61 4.52 8.61-4.52-1.65 9.58 7 6.79-9.62 1.4zM31 38.73l6.71 1 3 6.08 3-6.08 6.72-1L45.61 34l1.15-6.69-6 3.16-6-3.16L35.89 34z"/><path class="ef17322a-e687-4223-b7e1-381222eb9853" d="M40.75 50.22l-4.3-8.72-9.63-1.4 7-6.79-1.65-9.58 8.61 4.52 8.61-4.52-1.65 9.58 7 6.79-9.62 1.4zM31 38.73l6.71 1 3 6.08 3-6.08 6.72-1L45.61 34l1.15-6.69-6 3.16-6-3.16L35.89 34z"/><path class="ef17322a-e687-4223-b7e1-381222eb9853" d="M27.7 70.18a3.7 3.7 0 0 1-3.31-2L19 57.63a2.42 2.42 0 0 0-.87-.84L7.68 51.45A3.77 3.77 0 0 1 5.84 47l3.62-11.29a1.58 1.58 0 0 0 0-1.09L5.85 23.3a3.58 3.58 0 0 1 1.83-4.48l10.53-5.37a2.42 2.42 0 0 0 .84-.87l5.34-10.47A3.71 3.71 0 0 1 28.86.17L40 3.9a1.61 1.61 0 0 0 1.08 0L52.43.28a3.71 3.71 0 0 1 4.48 1.84l5.37 10.31a2.53 2.53 0 0 0 .87.85l10.47 5.34a3.76 3.76 0 0 1 1.84 4.46l-3.62 11.27a1.63 1.63 0 0 0 0 1.09l3.64 11.32a3.72 3.72 0 0 1-1.84 4.48l-10.55 5.37a2.51 2.51 0 0 0-.84.87L56.91 68a4 4 0 0 1-4.23 2h-.14l-11.26-3.62a1.64 1.64 0 0 0-1.09 0L28.87 70a3.67 3.67 0 0 1-1.17.18zM27.73 2a1.78 1.78 0 0 0-1.59 1l-5.37 10.53a4.61 4.61 0 0 1-1.61 1.64l-10.59 5.4a1.65 1.65 0 0 0-.89 2.05L11.33 34a3.47 3.47 0 0 1 0 2.36L7.71 47.57a1.83 1.83 0 0 0 .88 2.14l10.51 5.36a4.5 4.5 0 0 1 1.63 1.61l5.41 10.59a1.75 1.75 0 0 0 2.12.86l11.27-3.62a3.47 3.47 0 0 1 2.36 0l11.17 3.59a2 2 0 0 0 2.1-1l5.37-10.53a4.66 4.66 0 0 1 1.61-1.63l10.59-5.41a1.74 1.74 0 0 0 .86-2.12L70 36.11a3.56 3.56 0 0 1 0-2.37l3.59-11.24a1.81 1.81 0 0 0-.88-2.15L62.2 15a4.55 4.55 0 0 1-1.63-1.6L55.17 3A1.76 1.76 0 0 0 53 2.14L41.78 5.76a3.5 3.5 0 0 1-2.37 0L28.26 2a2 2 0 0 0-.53 0zm12.92 54.61a21.53 21.53 0 1 1 21.53-21.53 21.55 21.55 0 0 1-21.53 21.53zm0-41.1a19.57 19.57 0 1 0 19.57 19.57 19.59 19.59 0 0 0-19.57-19.57z"/><path class="ef17322a-e687-4223-b7e1-381222eb9853" d="M24.52 99.94a2 2 0 0 1-1.78-1.11l-6.6-12-13.62 2.61a2.08 2.08 0 0 1-2.08-.76 2 2 0 0 1-.22-2.19l17.28-28.3 5.08 10.65A6 6 0 0 0 27.69 72c.77-.16 5.72-2 10.15-3.8l2.2-.85-13.57 31.32a2.16 2.16 0 0 1-1.95 1.27zm-8.4-15.06A1.93 1.93 0 0 1 17.88 86l6.59 11.94c.05.07.16.06.23-.07L36.36 70.9c-5.19 2-8.08 3.06-8.62 3.06a7.81 7.81 0 0 1-6.86-4.14l-3.12-7.58L2 87.34s-.05.09 0 .14a.15.15 0 0 0 .15 0l13.55-2.59a2.2 2.2 0 0 1 .42-.01zM56.75 100h-.06a2.12 2.12 0 0 1-1.84-1.17L41.28 67.35l2.18.85C48 69.94 53 71.8 53.64 71.9a5.54 5.54 0 0 0 5-3.07v-.09l5.09-10.65L81.08 86.5a2.05 2.05 0 0 1-.16 2.12 2.22 2.22 0 0 1-2.06.93L65.25 87h-.08l-6.62 12a2.05 2.05 0 0 1-1.8 1zm-.12-2a.13.13 0 0 0 .11.05.12.12 0 0 0 .1 0l6.6-12a2 2 0 0 1 2.23-1l13.48 2.57c.07 0 .14-.08.16-.11a.13.13 0 0 0 0-.14L63.54 62.14l-3.14 7.61a7.49 7.49 0 0 1-6.84 4.11c-.53 0-3.43-1-8.64-3L56.63 98z"/><path class="ef17322a-e687-4223-b7e1-381222eb9853" d="M27.7 70.18a3.7 3.7 0 0 1-3.31-2L19 57.63a2.42 2.42 0 0 0-.87-.84L7.68 51.45A3.77 3.77 0 0 1 5.84 47l3.62-11.29a1.58 1.58 0 0 0 0-1.09L5.85 23.3a3.58 3.58 0 0 1 1.83-4.48l10.53-5.37a2.42 2.42 0 0 0 .84-.87l5.34-10.47A3.71 3.71 0 0 1 28.86.17L40 3.9a1.61 1.61 0 0 0 1.08 0L52.43.28a3.71 3.71 0 0 1 4.48 1.84l5.37 10.31a2.53 2.53 0 0 0 .87.85l10.47 5.34a3.76 3.76 0 0 1 1.84 4.46l-3.62 11.27a1.63 1.63 0 0 0 0 1.09l3.64 11.32a3.72 3.72 0 0 1-1.84 4.48l-10.55 5.37a2.51 2.51 0 0 0-.84.87L56.91 68a4 4 0 0 1-4.23 2h-.14l-11.26-3.62a1.64 1.64 0 0 0-1.09 0L28.87 70a3.67 3.67 0 0 1-1.17.18zM27.73 2a1.78 1.78 0 0 0-1.59 1l-5.37 10.53a4.61 4.61 0 0 1-1.61 1.64l-10.59 5.4a1.65 1.65 0 0 0-.89 2.05L11.33 34a3.47 3.47 0 0 1 0 2.36L7.71 47.57a1.83 1.83 0 0 0 .88 2.14l10.51 5.36a4.5 4.5 0 0 1 1.63 1.61l5.41 10.59a1.75 1.75 0 0 0 2.12.86l11.27-3.62a3.47 3.47 0 0 1 2.36 0l11.17 3.59a2 2 0 0 0 2.1-1l5.37-10.53a4.66 4.66 0 0 1 1.61-1.63l10.59-5.41a1.74 1.74 0 0 0 .86-2.12L70 36.11a3.56 3.56 0 0 1 0-2.37l3.59-11.24a1.81 1.81 0 0 0-.88-2.15L62.2 15a4.55 4.55 0 0 1-1.63-1.6L55.17 3A1.76 1.76 0 0 0 53 2.14L41.78 5.76a3.5 3.5 0 0 1-2.37 0L28.26 2a2 2 0 0 0-.53 0zm12.92 54.61a21.53 21.53 0 1 1 21.53-21.53 21.55 21.55 0 0 1-21.53 21.53zm0-41.1a19.57 19.57 0 1 0 19.57 19.57 19.59 19.59 0 0 0-19.57-19.57z"/></g></g></svg>