<svg xmlns="http://www.w3.org/2000/svg" width="131.39" height="100"><defs><style>.b81d5d8b-8941-4fd0-b5d4-6a0d309f38c0{fill:#e58025}</style></defs><g id="af023ace-90d4-4530-875f-fb0e492457a5" data-name="Layer 2"><g id="b0ef9ffa-dd10-4e6e-9870-88b8c954fe72" data-name="Layer 1"><path class="b81d5d8b-8941-4fd0-b5d4-6a0d309f38c0" d="M39.44 28.78c5.7 7 11.4 13.39 13.61 21.85 1.61 6.15-4 13.58-10.72 15-7.22 1.53-14.91-3.29-16.21-10.36a12.42 12.42 0 0 1 .05-5.94c2.6-7.75 7.74-13.92 13.27-20.55zM27.81 52.41c-.28 4.17 1.93 7.53 5.09 10 .86.66 2.83 1.41 3.7.5.7-.94.61-1.86-1.08-3.25-3.11-2.56-4-5.77-3.07-9.56a47.91 47.91 0 0 0 1.26-4.77c.11-.88.73-1.78-.76-2.78-1.18-.48-2 0-2.7 1.49a29.58 29.58 0 0 0-2.44 8.37z"/><path class="b81d5d8b-8941-4fd0-b5d4-6a0d309f38c0" d="M53.06 100H6.49a5.69 5.69 0 0 1-3.35-1.19 8.41 8.41 0 0 1-.73-.61 7.36 7.36 0 0 1-2-7.87A7.57 7.57 0 0 1 3 86.8l1.82-1.42.63-28.1c-.9-1.43-1.75-2.87-2.53-4.28a8.58 8.58 0 0 1 .27-8.79l1.13-1.77V14.08L2.56 9.89a6.94 6.94 0 0 1 .65-6.62A7.36 7.36 0 0 1 9.33 0H68.1v2H9.35a5.41 5.41 0 0 0-4.51 2.37 4.93 4.93 0 0 0-.48 4.76l1.94 4.55V43l-1.46 2.27a6.6 6.6 0 0 0-.2 6.78c.81 1.46 1.69 3 2.62 4.44l.16.25-.66 29.61-2.55 2A5.71 5.71 0 0 0 2.26 91a5.42 5.42 0 0 0 1.46 5.79l.62.52a3.73 3.73 0 0 0 2.18.69h46.54zM71.82 69.62h-2L70 56.76l.15-.23c.4-.64 1.47-2.36 2.65-4.48a6.62 6.62 0 0 0-.21-6.78L71.16 43V13.67l2-4.64a4.91 4.91 0 0 0-.51-4.67A5.4 5.4 0 0 0 68.12 2V0a7.34 7.34 0 0 1 6.11 3.27 6.84 6.84 0 0 1 .7 6.53l-1.83 4.28v28.36l1.14 1.77a8.56 8.56 0 0 1 .28 8.79 90.783 90.783 0 0 1-2.56 4.34z"/><path class="b81d5d8b-8941-4fd0-b5d4-6a0d309f38c0" d="M53.06 100H6.49a5.69 5.69 0 0 1-3.35-1.19 8.41 8.41 0 0 1-.73-.61 7.36 7.36 0 0 1-2-7.87A7.57 7.57 0 0 1 3 86.8l1.82-1.42.63-28.1c-.9-1.43-1.75-2.87-2.53-4.28a8.58 8.58 0 0 1 .27-8.79l1.13-1.77V14.08L2.56 9.89a6.94 6.94 0 0 1 .65-6.62A7.36 7.36 0 0 1 9.33 0H68.1a1 1 0 1 1 0 2H9.35a5.41 5.41 0 0 0-4.51 2.37 4.93 4.93 0 0 0-.48 4.76l1.86 4.36a1 1 0 0 1 .08.39v28.84a1 1 0 0 1-.16.53l-1.29 2a6.6 6.6 0 0 0-.2 6.78c.81 1.46 1.69 3 2.62 4.44a.94.94 0 0 1 .15.54l-.65 28.87a1 1 0 0 1-.38.75l-2.18 1.71A5.71 5.71 0 0 0 2.26 91a5.42 5.42 0 0 0 1.46 5.79l.62.52a3.73 3.73 0 0 0 2.18.69h46.54a1 1 0 1 1 0 2z"/><path class="b81d5d8b-8941-4fd0-b5d4-6a0d309f38c0" d="M70.84 70.59a1 1 0 0 1-1-1L70 57a1 1 0 0 1 .16-.51c.4-.64 1.47-2.36 2.65-4.48a6.62 6.62 0 0 0-.21-6.78l-1.29-2a1 1 0 0 1-.15-.53V13.86a1 1 0 0 1 .08-.39L73.12 9a4.91 4.91 0 0 0-.51-4.67A5.4 5.4 0 0 0 68.12 2a1 1 0 0 1-1-1 1 1 0 0 1 1-1 7.34 7.34 0 0 1 6.11 3.27 6.84 6.84 0 0 1 .7 6.53l-1.83 4.28v28.36l1.14 1.77a8.56 8.56 0 0 1 .28 8.79 90.783 90.783 0 0 1-2.56 4.34l-.14 12.28a1 1 0 0 1-.98.97zM102 68.18H80.47a2.14 2.14 0 0 1-1.7-.81 2 2 0 0 1-.4-1.73l2.32-10.44A3.39 3.39 0 0 1 84 52.61h14.6a3.25 3.25 0 0 1 3.18 2.49l2.35 10.54a2.07 2.07 0 0 1-.41 1.73 2.14 2.14 0 0 1-1.72.81zM84 54.57a1.41 1.41 0 0 0-1.4 1.06l-2.32 10.43c0 .11.09.16.19.16H102a.22.22 0 0 0 .16-.07l-2.29-10.62a1.28 1.28 0 0 0-1.26-1zM115.66 84.07H94.09a2.14 2.14 0 0 1-1.69-.8 2 2 0 0 1-.4-1.74l2.32-10.43a3.37 3.37 0 0 1 3.31-2.59h14.6a3.25 3.25 0 0 1 3.18 2.49l2.35 10.53a2 2 0 0 1-.41 1.74 2.14 2.14 0 0 1-1.69.8zm-18-13.6a1.41 1.41 0 0 0-1.4 1L93.91 82c0 .1.08.15.18.15h21.57a.18.18 0 0 0 .16-.07l-2.32-10.65a1.29 1.29 0 0 0-1.27-1zM73 100H51.37a2.16 2.16 0 0 1-1.69-.8 2.06 2.06 0 0 1-.4-1.74L51.6 87a3.38 3.38 0 0 1 3.31-2.58h14.6a3.26 3.26 0 0 1 3.19 2.48L75 97.46a2.06 2.06 0 0 1-.4 1.74 2.16 2.16 0 0 1-1.6.8zM55 86.4a1.4 1.4 0 0 0-1.39 1l-2.42 10.48c0 .11.09.16.18.16H73a.22.22 0 0 0 .16-.07l-2.38-10.62a1.27 1.27 0 0 0-1.27-.95z"/><path class="b81d5d8b-8941-4fd0-b5d4-6a0d309f38c0" d="M86.9 84.18H65.33a2.14 2.14 0 0 1-1.69-.8 2.06 2.06 0 0 1-.41-1.74l2.33-10.43a3.37 3.37 0 0 1 3.31-2.59h14.6a3.25 3.25 0 0 1 3.18 2.49L89 81.64a2 2 0 0 1-.41 1.74 2.14 2.14 0 0 1-1.69.8zm-18-13.6a1.42 1.42 0 0 0-1.4 1l-2.35 10.49c0 .1.08.15.18.15H86.9a.18.18 0 0 0 .16-.07l-2.32-10.62a1.29 1.29 0 0 0-1.27-1zM100.8 100H79.23a2.14 2.14 0 0 1-1.69-.8 2 2 0 0 1-.41-1.74L79.46 87a3.37 3.37 0 0 1 3.31-2.58h14.6a3.24 3.24 0 0 1 3.18 2.48l2.35 10.54a2.07 2.07 0 0 1-.41 1.74 2.16 2.16 0 0 1-1.69.82zm-18-13.6a1.41 1.41 0 0 0-1.4 1L79 97.88c0 .11.09.16.19.16h21.61a.22.22 0 0 0 .2-.04l-2.36-10.65a1.29 1.29 0 0 0-1.27-.95zM129.25 100h-21.58a2.16 2.16 0 0 1-1.69-.8 2.06 2.06 0 0 1-.4-1.74L107.9 87a3.38 3.38 0 0 1 3.31-2.58h14.6a3.25 3.25 0 0 1 3.19 2.51l2.34 10.53a2.06 2.06 0 0 1-.4 1.74 2.16 2.16 0 0 1-1.69.8zm-18-13.6a1.4 1.4 0 0 0-1.39 1l-2.33 10.43c0 .11.09.16.18.16h21.58a.22.22 0 0 0 .16-.07l-2.33-10.62a1.27 1.27 0 0 0-1.27-.95zM39.44 28.78c5.7 7 11.4 13.39 13.61 21.85 1.61 6.15-4 13.58-10.72 15-7.22 1.53-14.91-3.29-16.21-10.36a12.42 12.42 0 0 1 .05-5.94c2.6-7.75 7.74-13.92 13.27-20.55zM27.81 52.41c-.28 4.17 1.93 7.53 5.09 10 .86.66 2.83 1.41 3.7.5.7-.94.61-1.86-1.08-3.25-3.11-2.56-4-5.77-3.07-9.56a47.91 47.91 0 0 0 1.26-4.77c.11-.88.73-1.78-.76-2.78-1.18-.48-2 0-2.7 1.49a29.58 29.58 0 0 0-2.44 8.37z"/><path class="b81d5d8b-8941-4fd0-b5d4-6a0d309f38c0" d="M53.06 100H6.49a5.69 5.69 0 0 1-3.35-1.19 8.41 8.41 0 0 1-.73-.61 7.36 7.36 0 0 1-2-7.87A7.57 7.57 0 0 1 3 86.8l1.82-1.42.63-28.1c-.9-1.43-1.75-2.87-2.53-4.28a8.58 8.58 0 0 1 .27-8.79l1.13-1.77V14.08L2.56 9.89a6.94 6.94 0 0 1 .65-6.62A7.36 7.36 0 0 1 9.33 0H68.1v2H9.35a5.41 5.41 0 0 0-4.51 2.37 4.93 4.93 0 0 0-.48 4.76l1.94 4.55V43l-1.46 2.27a6.6 6.6 0 0 0-.2 6.78c.81 1.46 1.69 3 2.62 4.44l.16.25-.66 29.61-2.55 2A5.71 5.71 0 0 0 2.26 91a5.42 5.42 0 0 0 1.46 5.79l.62.52a3.73 3.73 0 0 0 2.18.69h46.54zM71.82 69.62h-2L70 56.76l.15-.23c.4-.64 1.47-2.36 2.65-4.48a6.62 6.62 0 0 0-.21-6.78L71.16 43V13.67l2-4.64a4.91 4.91 0 0 0-.51-4.67A5.4 5.4 0 0 0 68.12 2V0a7.34 7.34 0 0 1 6.11 3.27 6.84 6.84 0 0 1 .7 6.53l-1.83 4.28v28.36l1.14 1.77a8.56 8.56 0 0 1 .28 8.79 90.783 90.783 0 0 1-2.56 4.34z"/><path class="b81d5d8b-8941-4fd0-b5d4-6a0d309f38c0" d="M53.06 100H6.49a5.69 5.69 0 0 1-3.35-1.19 8.41 8.41 0 0 1-.73-.61 7.36 7.36 0 0 1-2-7.87A7.57 7.57 0 0 1 3 86.8l1.82-1.42.63-28.1c-.9-1.43-1.75-2.87-2.53-4.28a8.58 8.58 0 0 1 .27-8.79l1.13-1.77V14.08L2.56 9.89a6.94 6.94 0 0 1 .65-6.62A7.36 7.36 0 0 1 9.33 0H68.1a1 1 0 1 1 0 2H9.35a5.41 5.41 0 0 0-4.51 2.37 4.93 4.93 0 0 0-.48 4.76l1.86 4.36a1 1 0 0 1 .08.39v28.84a1 1 0 0 1-.16.53l-1.29 2a6.6 6.6 0 0 0-.2 6.78c.81 1.46 1.69 3 2.62 4.44a.94.94 0 0 1 .15.54l-.65 28.87a1 1 0 0 1-.38.75l-2.18 1.71A5.71 5.71 0 0 0 2.26 91a5.42 5.42 0 0 0 1.46 5.79l.62.52a3.73 3.73 0 0 0 2.18.69h46.54a1 1 0 1 1 0 2z"/><path class="b81d5d8b-8941-4fd0-b5d4-6a0d309f38c0" d="M70.84 70.59a1 1 0 0 1-1-1L70 57a1 1 0 0 1 .16-.51c.4-.64 1.47-2.36 2.65-4.48a6.62 6.62 0 0 0-.21-6.78l-1.29-2a1 1 0 0 1-.15-.53V13.86a1 1 0 0 1 .08-.39L73.12 9a4.91 4.91 0 0 0-.51-4.67A5.4 5.4 0 0 0 68.12 2a1 1 0 0 1-1-1 1 1 0 0 1 1-1 7.34 7.34 0 0 1 6.11 3.27 6.84 6.84 0 0 1 .7 6.53l-1.83 4.28v28.36l1.14 1.77a8.56 8.56 0 0 1 .28 8.79 90.783 90.783 0 0 1-2.56 4.34l-.14 12.28a1 1 0 0 1-.98.97zM102 68.18H80.47a2.14 2.14 0 0 1-1.7-.81 2 2 0 0 1-.4-1.73l2.32-10.44A3.39 3.39 0 0 1 84 52.61h14.6a3.25 3.25 0 0 1 3.18 2.49l2.35 10.54a2.07 2.07 0 0 1-.41 1.73 2.14 2.14 0 0 1-1.72.81zM84 54.57a1.41 1.41 0 0 0-1.4 1.06l-2.32 10.43c0 .11.09.16.19.16H102a.22.22 0 0 0 .16-.07l-2.29-10.62a1.28 1.28 0 0 0-1.26-1zM115.66 84.07H94.09a2.14 2.14 0 0 1-1.69-.8 2 2 0 0 1-.4-1.74l2.32-10.43a3.37 3.37 0 0 1 3.31-2.59h14.6a3.25 3.25 0 0 1 3.18 2.49l2.35 10.53a2 2 0 0 1-.41 1.74 2.14 2.14 0 0 1-1.69.8zm-18-13.6a1.41 1.41 0 0 0-1.4 1L93.91 82c0 .1.08.15.18.15h21.57a.18.18 0 0 0 .16-.07l-2.32-10.65a1.29 1.29 0 0 0-1.27-1zM73 100H51.37a2.16 2.16 0 0 1-1.69-.8 2.06 2.06 0 0 1-.4-1.74L51.6 87a3.38 3.38 0 0 1 3.31-2.58h14.6a3.26 3.26 0 0 1 3.19 2.48L75 97.46a2.06 2.06 0 0 1-.4 1.74 2.16 2.16 0 0 1-1.6.8zM55 86.4a1.4 1.4 0 0 0-1.39 1l-2.42 10.48c0 .11.09.16.18.16H73a.22.22 0 0 0 .16-.07l-2.38-10.62a1.27 1.27 0 0 0-1.27-.95z"/><path class="b81d5d8b-8941-4fd0-b5d4-6a0d309f38c0" d="M86.9 84.18H65.33a2.14 2.14 0 0 1-1.69-.8 2.06 2.06 0 0 1-.41-1.74l2.33-10.43a3.37 3.37 0 0 1 3.31-2.59h14.6a3.25 3.25 0 0 1 3.18 2.49L89 81.64a2 2 0 0 1-.41 1.74 2.14 2.14 0 0 1-1.69.8zm-18-13.6a1.42 1.42 0 0 0-1.4 1l-2.35 10.49c0 .1.08.15.18.15H86.9a.18.18 0 0 0 .16-.07l-2.32-10.62a1.29 1.29 0 0 0-1.27-1zM100.8 100H79.23a2.14 2.14 0 0 1-1.69-.8 2 2 0 0 1-.41-1.74L79.46 87a3.37 3.37 0 0 1 3.31-2.58h14.6a3.24 3.24 0 0 1 3.18 2.48l2.35 10.54a2.07 2.07 0 0 1-.41 1.74 2.16 2.16 0 0 1-1.69.82zm-18-13.6a1.41 1.41 0 0 0-1.4 1L79 97.88c0 .11.09.16.19.16h21.61a.22.22 0 0 0 .2-.04l-2.36-10.65a1.29 1.29 0 0 0-1.27-.95zM129.25 100h-21.58a2.16 2.16 0 0 1-1.69-.8 2.06 2.06 0 0 1-.4-1.74L107.9 87a3.38 3.38 0 0 1 3.31-2.58h14.6a3.25 3.25 0 0 1 3.19 2.51l2.34 10.53a2.06 2.06 0 0 1-.4 1.74 2.16 2.16 0 0 1-1.69.8zm-18-13.6a1.4 1.4 0 0 0-1.39 1l-2.33 10.43c0 .11.09.16.18.16h21.58a.22.22 0 0 0 .16-.07l-2.33-10.62a1.27 1.27 0 0 0-1.27-.95z"/></g></g></svg>