<svg xmlns="http://www.w3.org/2000/svg" width="107.92" height="100" viewBox="0 0 107.92 100"><defs><style>.b019432e-399b-484d-8810-0947b71873b5{fill:#ec7623}</style></defs><g id="fabd8fc0-bedf-47da-b730-56cdbe2e73a3" data-name="Layer 2"><g id="fc6675e5-8ab0-4d40-95e5-7cf5189c10a7" data-name="svg"><path class="b019432e-399b-484d-8810-0947b71873b5" d="M56.11 65.17a4.69 4.69 0 0 0-1.41-3.52 14.09 14.09 0 0 0-5-2.65 15.87 15.87 0 0 1-6-3.1 6.62 6.62 0 0 1-2-5.12 7 7 0 0 1 2-5.16 8 8 0 0 1 5.3-2.26v-4h2v4a7.44 7.44 0 0 1 5.29 2.56A9 9 0 0 1 58.16 52l-.06.1h-2.19a7.26 7.26 0 0 0-1.56-4.83A5.42 5.42 0 0 0 50 45.41a5.91 5.91 0 0 0-4.39 1.51 5.19 5.19 0 0 0-1.49 3.82 4.91 4.91 0 0 0 1.32 3.58 13.22 13.22 0 0 0 5.1 2.61 16.58 16.58 0 0 1 6 3.14 6.48 6.48 0 0 1 1.94 5 6.82 6.82 0 0 1-2 5.19A8.64 8.64 0 0 1 51 72.52v3.71h-2v-3.69a9.56 9.56 0 0 1-5.87-2.26q-2.34-2-2.26-6.16l.06-.12h2.17q0 3.48 2 5a7.57 7.57 0 0 0 4.77 1.53A6.61 6.61 0 0 0 54.42 69a5 5 0 0 0 1.69-3.83zM64.37 59.29L66 43.73h13.76v2.17H67.94L66.89 56a8 8 0 0 1 2.36-1.5 10.25 10.25 0 0 1 3.5-.59 7.33 7.33 0 0 1 5.86 2.44 9.76 9.76 0 0 1 2.22 6.72A10.4 10.4 0 0 1 78.68 70q-2.16 2.58-6.5 2.58a8.83 8.83 0 0 1-5.86-2 6.89 6.89 0 0 1-2.24-5.81v-.11h2.09a5.7 5.7 0 0 0 1.63 4.38 6.1 6.1 0 0 0 4.34 1.51 5.77 5.77 0 0 0 4.74-1.91 8.51 8.51 0 0 0 1.57-5.54 7.79 7.79 0 0 0-1.53-5.1 5.39 5.39 0 0 0-4.41-1.92 8.15 8.15 0 0 0-4.17.87 5 5 0 0 0-2.08 2.63z"/><path d="M62.22 100C37 100 16.49 79.75 16.49 54.87a45.35 45.35 0 0 1 2.15-13.72l.25-.76.79.08a15.4 15.4 0 0 0 1.76.09 20.81 20.81 0 0 0 20.92-20.63 20.86 20.86 0 0 0-.53-4.62l-.18-.77.71-.33a45.78 45.78 0 0 1 19.86-4.47c25.2 0 45.7 20.25 45.7 45.13S87.42 100 62.22 100zM20.28 42.49a43.21 43.21 0 0 0-1.83 12.38C18.45 78.67 38.08 98 62.22 98S106 78.67 106 54.87 86.34 11.7 62.22 11.7a44 44 0 0 0-18.32 4 22.25 22.25 0 0 1 .42 4.28 22.76 22.76 0 0 1-22.88 22.54c-.44 0-.8-.01-1.16-.03zM19.75 39A19.65 19.65 0 0 1 0 19.51a19.75 19.75 0 0 1 39.5 0A19.65 19.65 0 0 1 19.75 39zm0-37A17.69 17.69 0 0 0 2 19.51a17.69 17.69 0 0 0 17.75 17.54 17.69 17.69 0 0 0 17.79-17.54A17.69 17.69 0 0 0 19.75 2zm.31 27.76a2.81 2.81 0 0 1-2.86-2.86v-4.37h-4.41a2.89 2.89 0 1 1 0-5.77h4.41v-4.35a2.91 2.91 0 0 1 5.82 0v4.35h4.43a2.89 2.89 0 1 1 0 5.77H23v4.37a2.9 2.9 0 0 1-2.94 2.82zm-7.27-11a.94.94 0 0 0-.95.92.93.93 0 0 0 .95.93h6.37v6.29a.85.85 0 0 0 .9.86.94.94 0 0 0 1-.86v-6.33h6.39a.93.93 0 1 0 0-1.85h-6.39v-6.31a1 1 0 0 0-1.9 0v6.31z" fill="#e38025"/></g></g></svg>