<svg xmlns="http://www.w3.org/2000/svg" viewBox="0 0 82 82"><g data-name="Group 54"><g data-name="Group 53"><path data-name="Path 98" d="M21.932 26.5a1.449 1.449 0 0 0-1.432 1.432v25.83a1.449 1.449 0 0 0 1.432 1.432h39.227a1.449 1.449 0 0 0 1.432-1.432v-25.83a1.449 1.449 0 0 0-1.432-1.432zm1.48 1.91h36.267L41.55 44.815zm-1 1.681l11.2 10.122-11.2 11.611V30.09zm38.272 0v21.733l-11.2-11.611zm-25.658 11.4l5.873 5.319a.954.954 0 0 0 1.289 0l5.873-5.319 11.37 11.789H23.65c0 .014 11.374-11.788 11.374-11.788z" fill="#fff"/></g><path data-name="Path 99" d="M81 41A40 40 0 1 1 41 1a40 40 0 0 1 40 40z" fill="none" stroke="#fff" stroke-miterlimit="10" stroke-width="2"/></g></svg>