<svg version="1.1" id="Layer_1" xmlns="http://www.w3.org/2000/svg" x="0" y="0" viewBox="0 0 88.4 100" xml:space="preserve"><style>.st0{fill:#e58025}</style><g id="af63abb3-4745-40f2-b9dc-5953d9b94b48"><g id="aab0d9ab-942f-46bd-a607-3b67c763bd1b"><path class="st0" d="M30.6 35.6c3 0 6 .5 8.8 1.5 4.7 1.7 9.6 2.6 14.6 2.7 4 0 7.9-.6 11.7-1.9V46.8c0 4.3 0 8.8.1 13.2 0 1.2-.1 1.5-1.6 2.2-3 1.4-6.3 2.2-9.7 2.3-2.3 0-4.6-.4-6.8-1.3-5.1-2-11.3-4-17.9-4-2.5 0-5 .3-7.4.9V36.7c2.7-.7 5.5-1.1 8.2-1.1m14.1 21.7c4.3.1 7.8-3.3 7.9-7.6v-.2c.1-4.3-3.3-8-7.7-8.1h-.2c-4.4.1-7.8 3.8-7.7 8.2.1 4.2 3.4 7.5 7.6 7.7h.1m-14-23.6c-3.4 0-6.8.6-10.1 1.6v27.3c3-1 6.1-1.5 9.3-1.5 5.9 0 11.6 1.7 17.2 3.9 2.4.9 4.9 1.4 7.5 1.4 3.6-.1 7.2-.9 10.5-2.4 1.9-.9 2.8-1.8 2.8-4.1-.2-6.1-.1-12.1-.1-18.2v-6.6c-4.3 1.8-9 2.8-13.6 2.8-4.8-.1-9.5-.9-14-2.6-3.2-1.1-6.4-1.6-9.5-1.6zm14 21.6c-3.3 0-5.9-2.6-6-5.8v-.2c0-3.3 2.7-5.9 6-5.9h.1c3.3 0 5.9 2.7 5.9 6v.1c0 3.2-2.6 5.8-5.8 5.9-.1-.1-.1-.1-.2-.1z"/><path class="st0" d="M30.6 35.6c3 0 6 .5 8.8 1.5 4.7 1.7 9.6 2.6 14.6 2.7 4 0 7.9-.6 11.7-1.9V46.8c0 4.3 0 8.8.1 13.2 0 1.2-.1 1.5-1.6 2.2-3 1.4-6.3 2.2-9.7 2.3-2.3 0-4.6-.4-6.8-1.3-5.1-2-11.3-4-17.9-4-2.5 0-5 .3-7.4.9V36.7c2.7-.7 5.5-1.1 8.2-1.1m14.1 21.7c4.3.1 7.8-3.3 7.9-7.6v-.2c.1-4.3-3.3-8-7.7-8.1h-.2c-4.4.1-7.8 3.8-7.7 8.2.1 4.2 3.4 7.5 7.6 7.7h.1m-14-23.6c-3.4 0-6.8.6-10.1 1.6v27.3c3-1 6.1-1.5 9.3-1.5 5.9 0 11.6 1.7 17.2 3.9 2.4.9 4.9 1.4 7.5 1.4 3.6-.1 7.2-.9 10.5-2.4 1.9-.9 2.8-1.8 2.8-4.1-.2-6.1-.1-12.1-.1-18.2v-6.6c-4.3 1.8-9 2.8-13.6 2.8-4.8-.1-9.5-.9-14-2.6-3.2-1.1-6.4-1.6-9.5-1.6zm14 21.6c-3.3 0-5.9-2.6-6-5.8v-.2c0-3.3 2.7-5.9 6-5.9h.1c3.3 0 5.9 2.7 5.9 6v.1c0 3.2-2.6 5.8-5.8 5.9-.1-.1-.1-.1-.2-.1z"/><path class="st0" d="M35.2 93H35C11.1 87.9-4.1 64.5 1 40.6 4.4 24.4 16.7 11.4 32.7 7.1c.6 0 1 .4 1.1.9 0 .4-.2.8-.6 1C10.7 15-2.6 38.2 3.4 60.7c4.1 15.3 16.5 27.1 32 30.4.5.2.8.7.6 1.3-.1.3-.4.6-.8.6z"/><path class="st0" d="M27.1 20.3c-.6 0-1-.5-1-1 0-.2.1-.3.1-.5L33 8.4 22.7 1.8c-.4-.4-.4-1-.1-1.4.3-.3.7-.4 1.1-.2l11.1 7.1c.2.1.4.4.4.6.1.3 0 .5-.1.7l-7.2 11.3c-.2.2-.5.4-.8.4z"/><path class="st0" d="M27.1 20.3c-.6 0-1-.5-1-1 0-.2.1-.3.1-.5L33 8.4 22.7 1.8c-.4-.4-.4-1-.1-1.4.3-.3.7-.4 1.1-.2l11.1 7.1c.2.1.4.4.4.6.1.3 0 .5-.1.7l-7.2 11.3c-.2.2-.5.4-.8.4zM53.9 92.1c-.5-.1-.9-.6-.8-1.1 0-.4.3-.7.6-.8C76.4 85 90.6 62.3 85.4 39.6c-3.8-16.4-17-29.1-33.6-32.1-.6 0-1-.4-1-1s.4-1 1-1c.1 0 .3 0 .4.1C76.2 10 92.1 33 87.7 57c-3.2 17.4-16.4 31.2-33.6 35.1h-.2z"/><path class="st0" d="M63.9 100c-.2 0-.4-.1-.5-.2l-11-7.6c-.4-.3-.5-.9-.2-1.4l7.6-11c.2-.5.8-.8 1.3-.6.5.2.8.8.6 1.3-.1.2-.2.3-.3.4l-7 10.2 10.2 7c.4.3.5 1 .2 1.4-.3.4-.6.5-.9.5zM27.1 20.3c-.6 0-1-.5-1-1 0-.2.1-.3.1-.5L33 8.4 22.7 1.8c-.4-.4-.4-1-.1-1.4.3-.3.7-.4 1.1-.2l11.1 7.1c.2.1.4.4.4.6.1.3 0 .5-.1.7l-7.2 11.3c-.2.2-.5.4-.8.4z"/><path class="st0" d="M27.1 20.3c-.6 0-1-.5-1-1 0-.2.1-.3.1-.5L33 8.4 22.7 1.8c-.4-.4-.4-1-.1-1.4.3-.3.7-.4 1.1-.2l11.1 7.1c.2.1.4.4.4.6.1.3 0 .5-.1.7l-7.2 11.3c-.2.2-.5.4-.8.4zM63.9 100c-.2 0-.4-.1-.5-.2l-11-7.6c-.4-.3-.5-.9-.2-1.4l7.6-11c.2-.5.8-.8 1.3-.6.5.2.8.8.6 1.3-.1.2-.2.3-.3.4l-7 10.2 10.2 7c.4.3.5 1 .2 1.4-.3.4-.6.5-.9.5z"/></g></g></svg>