<svg xmlns="http://www.w3.org/2000/svg" width="88.45" height="100" viewBox="0 0 88.45 100"><defs><style>.f8b725fc-3932-4cad-bcc6-9d6a150e021b{fill:#e58025}</style></defs><g id="af63abb3-4745-40f2-b9dc-5953d9b94b48" data-name="Layer 2"><g id="aab0d9ab-942f-46bd-a607-3b67c763bd1b" data-name="Layer 1"><path class="f8b725fc-3932-4cad-bcc6-9d6a150e021b" d="M30.63 35.62a26.81 26.81 0 0 1 8.82 1.47 44.29 44.29 0 0 0 14.64 2.67 36 36 0 0 0 11.68-1.93v8.89c0 4.31 0 8.76.1 13.16 0 1.2-.11 1.55-1.6 2.22a23.67 23.67 0 0 1-9.66 2.27 18.56 18.56 0 0 1-6.79-1.29c-5.14-2-11.29-4-17.94-4a30.81 30.81 0 0 0-7.39.87V36.74a31.22 31.22 0 0 1 8.15-1.12m14.04 21.64a7.75 7.75 0 0 0 7.91-7.81 7.87 7.87 0 0 0-7.8-8.06h-.11a7.94 7.94 0 0 0-.11 15.87h.11m-14-23.6a34.24 34.24 0 0 0-10.11 1.6v27.26a29.2 29.2 0 0 1 9.3-1.52c5.91 0 11.58 1.71 17.23 3.91a20.42 20.42 0 0 0 7.5 1.42 25.52 25.52 0 0 0 10.46-2.44c1.94-.87 2.83-1.8 2.76-4.07-.19-6.07-.08-12.14-.08-18.21v-6.62a34.91 34.91 0 0 1-13.65 2.81 42.66 42.66 0 0 1-14-2.56 28.59 28.59 0 0 0-9.46-1.58zm14 21.64h-.09a5.84 5.84 0 0 1-5.86-6 5.94 5.94 0 0 1 6-5.91h.08a5.94 5.94 0 0 1 5.87 6.08 5.83 5.83 0 0 1-6 5.87zM67.74 35z"/><path class="f8b725fc-3932-4cad-bcc6-9d6a150e021b" d="M30.63 35.62a26.81 26.81 0 0 1 8.82 1.47 44.29 44.29 0 0 0 14.64 2.67 36 36 0 0 0 11.68-1.93v8.89c0 4.31 0 8.76.1 13.16 0 1.2-.11 1.55-1.6 2.22a23.67 23.67 0 0 1-9.66 2.27 18.56 18.56 0 0 1-6.79-1.29c-5.14-2-11.29-4-17.94-4a30.81 30.81 0 0 0-7.39.87V36.74a31.22 31.22 0 0 1 8.15-1.12m14.04 21.64a7.75 7.75 0 0 0 7.91-7.81 7.87 7.87 0 0 0-7.8-8.06h-.11a7.94 7.94 0 0 0-.11 15.87h.11m-14-23.6a34.24 34.24 0 0 0-10.11 1.6v27.26a29.2 29.2 0 0 1 9.3-1.52c5.91 0 11.58 1.71 17.23 3.91a20.42 20.42 0 0 0 7.5 1.42 25.52 25.52 0 0 0 10.46-2.44c1.94-.87 2.83-1.8 2.76-4.07-.19-6.07-.08-12.14-.08-18.21v-6.62a34.91 34.91 0 0 1-13.65 2.81 42.66 42.66 0 0 1-14-2.56 28.59 28.59 0 0 0-9.46-1.58zm14 21.64h-.09a5.84 5.84 0 0 1-5.86-6 5.94 5.94 0 0 1 6-5.91h.08a5.94 5.94 0 0 1 5.87 6.08 5.83 5.83 0 0 1-6 5.87zM67.74 35z"/><path class="f8b725fc-3932-4cad-bcc6-9d6a150e021b" d="M35.17 93H35a44.18 44.18 0 0 1-2.26-85.88 1 1 0 0 1 .5 1.9 42.21 42.21 0 0 0 2.13 82.06 1 1 0 0 1-.2 1.94z"/><path class="f8b725fc-3932-4cad-bcc6-9d6a150e021b" d="M27.1 20.32a1 1 0 0 1-.82-1.5L33 8.35 22.7 1.81A1 1 0 0 1 23.76.15l11.08 7.08a1 1 0 0 1 .43.61 1 1 0 0 1-.13.74l-7.21 11.29a1 1 0 0 1-.83.45z"/><path class="f8b725fc-3932-4cad-bcc6-9d6a150e021b" d="M35.17 93H35a44.18 44.18 0 0 1-2.26-85.88 1 1 0 0 1 .5 1.9 42.21 42.21 0 0 0 2.13 82.06 1 1 0 0 1-.2 1.94z"/><path class="f8b725fc-3932-4cad-bcc6-9d6a150e021b" d="M35.17 93H35a44.18 44.18 0 0 1-2.26-85.88 1 1 0 0 1 .5 1.9 42.21 42.21 0 0 0 2.13 82.06 1 1 0 0 1-.2 1.94z"/><path class="f8b725fc-3932-4cad-bcc6-9d6a150e021b" d="M27.1 20.32a1 1 0 0 1-.82-1.5L33 8.35 22.7 1.81A1 1 0 0 1 23.76.15l11.08 7.08a1 1 0 0 1 .43.61 1 1 0 0 1-.13.74l-7.21 11.29a1 1 0 0 1-.83.45zM53.94 92.1a1 1 0 0 1-.22-1.93A42.21 42.21 0 0 0 51.87 7.5a1 1 0 1 1 .35-1.93 44.17 44.17 0 0 1 1.93 86.51.75.75 0 0 1-.21.02z"/><path class="f8b725fc-3932-4cad-bcc6-9d6a150e021b" d="M63.91 100a1 1 0 0 1-.55-.17l-11-7.6a1 1 0 0 1-.25-1.36l7.6-11A1 1 0 1 1 61.28 81l-7 10.22 10.23 7a1 1 0 0 1-.56 1.79zM35.17 93H35a44.18 44.18 0 0 1-2.26-85.88 1 1 0 0 1 .5 1.9 42.21 42.21 0 0 0 2.13 82.06 1 1 0 0 1-.2 1.94z"/><path class="f8b725fc-3932-4cad-bcc6-9d6a150e021b" d="M27.1 20.32a1 1 0 0 1-.82-1.5L33 8.35 22.7 1.81A1 1 0 0 1 23.76.15l11.08 7.08a1 1 0 0 1 .43.61 1 1 0 0 1-.13.74l-7.21 11.29a1 1 0 0 1-.83.45z"/><path class="f8b725fc-3932-4cad-bcc6-9d6a150e021b" d="M35.17 93H35a44.18 44.18 0 0 1-2.26-85.88 1 1 0 0 1 .5 1.9 42.21 42.21 0 0 0 2.13 82.06 1 1 0 0 1-.2 1.94z"/><path class="f8b725fc-3932-4cad-bcc6-9d6a150e021b" d="M35.17 93H35a44.18 44.18 0 0 1-2.26-85.88 1 1 0 0 1 .5 1.9 42.21 42.21 0 0 0 2.13 82.06 1 1 0 0 1-.2 1.94z"/><path class="f8b725fc-3932-4cad-bcc6-9d6a150e021b" d="M27.1 20.32a1 1 0 0 1-.82-1.5L33 8.35 22.7 1.81A1 1 0 0 1 23.76.15l11.08 7.08a1 1 0 0 1 .43.61 1 1 0 0 1-.13.74l-7.21 11.29a1 1 0 0 1-.83.45zM53.94 92.1a1 1 0 0 1-.22-1.93A42.21 42.21 0 0 0 51.87 7.5a1 1 0 1 1 .35-1.93 44.17 44.17 0 0 1 1.93 86.51.75.75 0 0 1-.21.02z"/><path class="f8b725fc-3932-4cad-bcc6-9d6a150e021b" d="M63.91 100a1 1 0 0 1-.55-.17l-11-7.6a1 1 0 0 1-.25-1.36l7.6-11A1 1 0 1 1 61.28 81l-7 10.22 10.23 7a1 1 0 0 1-.56 1.79z"/></g></g></svg>