<svg xmlns="http://www.w3.org/2000/svg" width="105.19" height="100" viewBox="0 0 105.19 100"><defs><style>.b0aa0d28-bdce-4f98-b7a9-ea195dc623b6{fill:#fff}.abe8b848-78f5-4c03-bc18-c63a3bc67595,.orange-fill{fill:#e98024}.a494537e-e39a-4310-baaa-2349df8de869{opacity:0}.abe8b848-78f5-4c03-bc18-c63a3bc67595{fill-rule:evenodd}</style></defs><g id="a92c56ff-7712-4cda-9a5c-7516ade86e57" data-name="Layer 2"><g id="f561bfbf-64b2-42e4-99ff-cc9c2ceefb75" data-name="Layer 1"><g id="e88bd3b2-7eaa-4e34-a618-4eebf83bd388" data-name="Get-Started-Page"><g id="b5ed945a-29c5-4547-8b81-88995768fc19" data-name="Get-Started---Binary-Option-"><g id="ada83e24-c438-48ac-8229-ac9ff5f545e1" data-name="Group-17"><g id="f5013bd8-1898-47fb-8e6f-07a3ffd9f9ae" data-name="Oval-2"><circle class="b0aa0d28-bdce-4f98-b7a9-ea195dc623b6" cx="70.13" cy="64.94" r="33.77"/><path class="orange-fill" d="M70.13 100a35.07 35.07 0 1 1 35.06-35.06A35.11 35.11 0 0 1 70.13 100zm0-67.53a32.47 32.47 0 1 0 32.47 32.47 32.51 32.51 0 0 0-32.47-32.47z"/></g><g id="b5bf7293-ca56-4b35-9662-bb8fe554685b" data-name="Group-Copy"><path fill="#fff" d="M49.35 44.16h41.56v41.56H49.35z" id="b35466ac-0354-4440-933d-e537706bc081" data-name="border"/><g id="abdbb4f5-9dcf-425b-9f6b-a31959045e8b" data-name="Rectangle-2"><path class="orange-fill" d="M58.44 61h23.38a1.3 1.3 0 0 1 1.3 1.3 1.3 1.3 0 0 1-1.3 1.3H58.44a1.3 1.3 0 0 1-1.3-1.3 1.3 1.3 0 0 1 1.3-1.3z"/><path class="abe8b848-78f5-4c03-bc18-c63a3bc67595" d="M58.44 61h23.38a1.3 1.3 0 0 1 1.3 1.3 1.3 1.3 0 0 1-1.3 1.3H58.44a1.3 1.3 0 0 1-1.3-1.3 1.3 1.3 0 0 1 1.3-1.3z"/></g><g id="a24a3eb1-b507-44e2-b063-89a81b14abd6" data-name="Path"><path class="orange-fill" d="M79.53 76.17a1.3 1.3 0 0 0 2-1.69L65.92 56.3a1.3 1.3 0 0 0-1.8-.17l-6.49 5.19a1.3 1.3 0 0 0 1.62 2l5.52-4.41z"/><path class="orange-fill" d="M79.53 76.17a1.3 1.3 0 0 0 2-1.69L65.92 56.3a1.3 1.3 0 0 0-1.8-.17l-6.49 5.19a1.3 1.3 0 0 0 1.62 2l5.52-4.41z"/></g><g id="ef842050-6d71-4bc7-aae5-4d3dfe398a1d" data-name="Rectangle"><path class="orange-fill" d="M80.52 75.32h-3.9a1.3 1.3 0 0 0 0 2.6h5.2a1.3 1.3 0 0 0 1.3-1.3v-5.19a1.3 1.3 0 0 0-2.6 0z"/><path class="orange-fill" d="M80.52 75.32h-3.9a1.3 1.3 0 0 0 0 2.6h5.2a1.3 1.3 0 0 0 1.3-1.3v-5.19a1.3 1.3 0 0 0-2.6 0z"/></g></g></g><g id="bc8d8c25-94f3-459a-9685-cabeaadd2fd1" data-name="Group-16"><circle class="b0aa0d28-bdce-4f98-b7a9-ea195dc623b6" cx="33.77" cy="33.77" r="32.47"/><path class="orange-fill" d="M33.77 67.53a33.77 33.77 0 1 1 33.76-33.76 33.8 33.8 0 0 1-33.76 33.76zm0-64.93a31.17 31.17 0 1 0 31.17 31.17A31.2 31.2 0 0 0 33.77 2.6z"/><g class="a494537e-e39a-4310-baaa-2349df8de869"><path class="orange-fill" d="M12.99 12.99h41.56v41.56H12.99z"/></g><path class="orange-fill" d="M22.08 33.77h23.37a1.3 1.3 0 0 1 1.3 1.29 1.3 1.3 0 0 1-1.3 1.3H22.08a1.3 1.3 0 0 1-1.3-1.3 1.3 1.3 0 0 1 1.3-1.29z"/><path class="abe8b848-78f5-4c03-bc18-c63a3bc67595" d="M22.08 33.77h23.37a1.3 1.3 0 0 1 1.3 1.29 1.3 1.3 0 0 1-1.3 1.3H22.08a1.3 1.3 0 0 1-1.3-1.3 1.3 1.3 0 0 1 1.3-1.29z"/><path class="orange-fill" d="M22.89 34.05a1.3 1.3 0 1 0-1.62 2l6.49 5.19a1.3 1.3 0 0 0 1.77-.13l15.58-16.85a1.3 1.3 0 1 0-1.91-1.76l-14.76 16z"/><path class="orange-fill" d="M22.89 34.05a1.3 1.3 0 1 0-1.62 2l6.49 5.19a1.3 1.3 0 0 0 1.77-.13l15.58-16.85a1.3 1.3 0 1 0-1.91-1.76l-14.76 16z"/><path class="orange-fill" d="M44.16 23.38v3.89a1.3 1.3 0 1 0 2.59 0v-5.19a1.3 1.3 0 0 0-1.3-1.3h-5.19a1.3 1.3 0 1 0 0 2.6z"/><path class="orange-fill" d="M44.16 23.38v3.89a1.3 1.3 0 1 0 2.59 0v-5.19a1.3 1.3 0 0 0-1.3-1.3h-5.19a1.3 1.3 0 1 0 0 2.6z"/></g></g></g></g></g></svg>