<svg xmlns="http://www.w3.org/2000/svg" width="105.13" height="100" viewBox="0 0 105.13 100"><defs><style>.ee6f21a4-151a-4c0f-80fe-cb8e140c4e02{fill:#e98024}.bdcbf7ce-96f1-425b-80f9-c9ee00b8a433{fill:#fff}</style></defs><g id="e8792d90-9875-4b63-95b1-fc3d4dabec40" data-name="Layer 2"><g id="f3517bbb-9299-4772-b065-3d6d93426235" data-name="Layer 1"><g id="ffc3931b-2ff8-41f4-b0be-83158dd75689" data-name="Group-4"><g id="a13ca2ba-7e82-4ed8-be23-dc990b6ac381" data-name="Oval-2-Copy"><circle class="ee6f21a4-151a-4c0f-80fe-cb8e140c4e02" cx="70.51" cy="65.38" r="33.33"/><path class="ee6f21a4-151a-4c0f-80fe-cb8e140c4e02" d="M70.51 100a34.62 34.62 0 1 1 34.62-34.62A34.66 34.66 0 0 1 70.51 100zm0-66.67a32.06 32.06 0 1 0 32.05 32.05 32.09 32.09 0 0 0-32.05-32.05z"/></g><g id="b28d850b-f2ba-4fe4-a8ad-a621ce5eca13" data-name="Group"><path class="ee6f21a4-151a-4c0f-80fe-cb8e140c4e02" d="M81.35 64.9a1.29 1.29 0 0 1 2.57 0v5.44a1.28 1.28 0 0 1-1.28 1.28H77.2a1.28 1.28 0 0 1 0-2.56h4.15z" id="efbe0e1f-ab3f-4b59-a20f-25515e4f9070" data-name="Path-3"/><path class="ee6f21a4-151a-4c0f-80fe-cb8e140c4e02" d="M73.19 60l7.16 9.71a1.28 1.28 0 1 0 2.06-1.53l-8.3-11.25A1.29 1.29 0 0 0 72 57l-6.6 11-6.61-11a1.28 1.28 0 0 0-2.2 1.32l7.7 12.82a1.27 1.27 0 0 0 2.19 0z" id="f3785503-c0a9-4b04-8cd2-65538257e952" data-name="Path-7"/></g><path class="ee6f21a4-151a-4c0f-80fe-cb8e140c4e02" d="M57.69 76.92a1.28 1.28 0 1 1 0-2.56h26.93a1.28 1.28 0 0 1 0 2.56z" id="b96bc7fa-f31a-400b-8f04-dcfc32088162" data-name="Line-14"/><g id="ad5c6583-b9ad-4faf-91b4-c3305b90a86c" data-name="Oval-2-Copy"><circle class="bdcbf7ce-96f1-425b-80f9-c9ee00b8a433" cx="70.51" cy="65.38" r="33.33"/><path class="ee6f21a4-151a-4c0f-80fe-cb8e140c4e02" d="M70.51 100a34.62 34.62 0 1 1 34.62-34.62A34.66 34.66 0 0 1 70.51 100zm0-66.67a32.06 32.06 0 1 0 32.05 32.05 32.09 32.09 0 0 0-32.05-32.05z"/></g><g id="b5b9b4ba-0615-44c2-95f1-6ee9adf33780" data-name="Group"><path class="ee6f21a4-151a-4c0f-80fe-cb8e140c4e02" d="M81.35 64.9a1.29 1.29 0 0 1 2.57 0v5.44a1.28 1.28 0 0 1-1.28 1.28H77.2a1.28 1.28 0 0 1 0-2.56h4.15z" id="b65e4294-fcc5-47c9-a124-ea6c4840c273" data-name="Path-3"/><path class="ee6f21a4-151a-4c0f-80fe-cb8e140c4e02" d="M73.19 60l7.16 9.71a1.28 1.28 0 1 0 2.06-1.53l-8.3-11.25A1.29 1.29 0 0 0 72 57l-6.6 11-6.61-11a1.28 1.28 0 0 0-2.2 1.32l7.7 12.82a1.27 1.27 0 0 0 2.19 0z" id="b852cdcf-1407-491e-899e-30c18a1ea063" data-name="Path-7"/></g><path class="ee6f21a4-151a-4c0f-80fe-cb8e140c4e02" d="M57.69 76.92a1.28 1.28 0 1 1 0-2.56h26.93a1.28 1.28 0 0 1 0 2.56z" id="f24b35a4-3049-47de-b724-4b535d774d0f" data-name="Line-14"/></g><g id="be05a624-f2fd-4bd7-9d63-a85606bf661d" data-name="Group-5"><g id="b7017c54-fa2d-4923-847f-d66d0f25955d" data-name="Oval-2"><circle class="ee6f21a4-151a-4c0f-80fe-cb8e140c4e02" cx="34.62" cy="34.62" r="33.33"/><path class="ee6f21a4-151a-4c0f-80fe-cb8e140c4e02" d="M34.62 69.23a34.62 34.62 0 1 1 34.61-34.61 34.66 34.66 0 0 1-34.61 34.61zm0-66.67a32.06 32.06 0 1 0 32.05 32.06A32.09 32.09 0 0 0 34.62 2.56z"/></g><g id="e4a056d2-f321-4c28-adcf-ec6f7b2ff4dd" data-name="Group-13"><path class="ee6f21a4-151a-4c0f-80fe-cb8e140c4e02" d="M21.79 25.64a1.28 1.28 0 1 1 0-2.56h26.93a1.28 1.28 0 0 1 0 2.56zM45.46 35.1a1.28 1.28 0 0 0 2.56 0v-5.44a1.28 1.28 0 0 0-1.28-1.28H41.3a1.28 1.28 0 1 0 0 2.56h4.16z"/><path class="ee6f21a4-151a-4c0f-80fe-cb8e140c4e02" d="M44.45 30.29a1.28 1.28 0 1 1 2.06 1.53l-8.3 11.25a1.29 1.29 0 0 1-2.13-.1L29.49 32l-6.6 11a1.28 1.28 0 1 1-2.19-1.32l7.69-12.82a1.28 1.28 0 0 1 2.2 0L37.29 40z"/></g><g id="ad8e457c-c240-4ab7-83e4-925bc88269d4" data-name="Oval-2"><circle class="bdcbf7ce-96f1-425b-80f9-c9ee00b8a433" cx="34.62" cy="34.62" r="33.33"/><path class="ee6f21a4-151a-4c0f-80fe-cb8e140c4e02" d="M34.62 69.23a34.62 34.62 0 1 1 34.61-34.61 34.66 34.66 0 0 1-34.61 34.61zm0-66.67a32.06 32.06 0 1 0 32.05 32.06A32.09 32.09 0 0 0 34.62 2.56z"/></g><g id="af1fbf34-00a4-45db-8ec1-3197db6a23d1" data-name="Group-13"><path class="ee6f21a4-151a-4c0f-80fe-cb8e140c4e02" d="M21.79 25.64a1.28 1.28 0 1 1 0-2.56h26.93a1.28 1.28 0 0 1 0 2.56zM45.46 35.1a1.28 1.28 0 0 0 2.56 0v-5.44a1.28 1.28 0 0 0-1.28-1.28H41.3a1.28 1.28 0 1 0 0 2.56h4.16z"/><path class="ee6f21a4-151a-4c0f-80fe-cb8e140c4e02" d="M44.45 30.29a1.28 1.28 0 1 1 2.06 1.53l-8.3 11.25a1.29 1.29 0 0 1-2.13-.1L29.49 32l-6.6 11a1.28 1.28 0 1 1-2.19-1.32l7.69-12.82a1.28 1.28 0 0 1 2.2 0L37.29 40z"/></g></g></g></g></svg>