<svg xmlns="http://www.w3.org/2000/svg" width="129.11" height="100" viewBox="0 0 129.11 100"><defs><style>.a3e35353-3574-43b4-92b7-0924d33402c8{fill:#e58025}.f49ddda7-1749-4fc2-ae65-62e2c7baddc3{fill:#ee7623}</style></defs><g id="a450680f-afb7-4aca-b121-289e79852aaf" data-name="Layer 2"><g id="ba3bbf3c-03f5-42e8-803c-0ac447e0a6ac" data-name="Layer 1"><path class="a3e35353-3574-43b4-92b7-0924d33402c8" d="M18.75 61.34h-6a.77.77 0 1 1 0-1.54h6a.77.77 0 0 1 0 1.54zM113.11 65.31h-6a.77.77 0 1 1 0-1.54h6a.77.77 0 0 1 0 1.54zM13.93 74.39a.79.79 0 0 1-.75-.57.77.77 0 0 1 .55-.94l5.81-1.56a.77.77 0 1 1 .39 1.49l-5.8 1.55zM106.11 53.8a.76.76 0 0 1-.74-.57.77.77 0 0 1 .54-.94l5.81-1.55a.77.77 0 1 1 .4 1.48l-5.81 1.56a.68.68 0 0 1-.2.02zM18.46 86.69a.77.77 0 0 1-.38-1.44l5.21-3a.77.77 0 0 1 .77 1.33l-5.21 3a.76.76 0 0 1-.39.11zM102.17 42.94a.76.76 0 0 1-.67-.38.77.77 0 0 1 .28-1.05l5.22-3a.77.77 0 0 1 1 .28.78.78 0 0 1-.29 1.06l-5.21 3a.75.75 0 0 1-.33.09zM95.56 33.49a.75.75 0 0 1-.54-.22.77.77 0 0 1 0-1.09l4.25-4.26a.77.77 0 0 1 1.09 1.08l-4.25 4.26a.77.77 0 0 1-.55.23zM86.72 26.05a.75.75 0 0 1-.38-.1.76.76 0 0 1-.28-1.05l3-5.21a.77.77 0 0 1 1.34.77l-3 5.21a.76.76 0 0 1-.68.38zM76.28 21.16a.64.64 0 0 1-.2 0 .77.77 0 0 1-.55-.94l1.56-5.81a.77.77 0 1 1 1.49.39L77 20.59a.77.77 0 0 1-.72.57zM64.9 19.14a.77.77 0 0 1-.77-.77v-6a.77.77 0 1 1 1.54 0v6a.76.76 0 0 1-.77.77zM53.4 20.14a.79.79 0 0 1-.75-.57l-1.55-5.81a.77.77 0 1 1 1.49-.4l1.55 5.81a.77.77 0 0 1-.54.94zM42.55 24.07a.76.76 0 0 1-.67-.39l-3-5.2a.77.77 0 1 1 1.33-.78l3 5.21a.78.78 0 0 1-.66 1.16zM33.09 30.68a.77.77 0 0 1-.55-.22l-4.25-4.26a.77.77 0 0 1 1.09-1.09l4.25 4.26a.77.77 0 0 1 0 1.09.76.76 0 0 1-.54.22zM105.39 90.14A.76.76 0 0 1 105 90l-5.2-3a.77.77 0 1 1 .77-1.33l5.21 3a.77.77 0 0 1-.39 1.44zM25.65 39.52a.76.76 0 0 1-.38-.11l-5.21-3a.76.76 0 0 1-.28-1 .77.77 0 0 1 1-.28l5.21 3a.77.77 0 0 1-.39 1.44zM110.88 78.23h-.2l-5.8-1.55a.76.76 0 0 1-.55-.94.78.78 0 0 1 .94-.55l5.81 1.56a.77.77 0 0 1 .55.94.79.79 0 0 1-.75.54zM20.77 50a.64.64 0 0 1-.2 0l-5.81-1.56a.77.77 0 1 1 .39-1.48l5.85 1.5a.77.77 0 0 1-.23 1.54zM64.1 50.22a8.55 8.55 0 1 0 4.45 15.06L96.6 73l-25-15.31a8.55 8.55 0 0 0-7.5-7.47z"/><path class="a3e35353-3574-43b4-92b7-0924d33402c8" d="M96.6 73.75a.76.76 0 0 1-.21 0l-27.67-7.62A9.23 9.23 0 0 1 62 68a9.32 9.32 0 1 1 2.17-18.51 9.27 9.27 0 0 1 8.09 7.74L97 72.32a.77.77 0 0 1-.4 1.43zm-28-9.24h.2l22.76 6.29-20.39-12.48a.75.75 0 0 1-.36-.56A7.77 7.77 0 0 0 64 51a7.78 7.78 0 1 0 4 13.71.77.77 0 0 1 .55-.2zM80.79 88.62H45.06a.77.77 0 0 1-.77-.77V76.7a.77.77 0 0 1 .77-.77h35.73a.78.78 0 0 1 .77.77v11.15a.78.78 0 0 1-.77.77zm-35-1.54H80v-9.61H45.83z"/><path class="a3e35353-3574-43b4-92b7-0924d33402c8" d="M53.07 80.42h3.03v3.71h-3.03zM58.63 80.42h3.03v3.71h-3.03zM64.18 80.42h3.03v3.71h-3.03zM69.74 80.42h3.03v3.71h-3.03z"/><path class="a3e35353-3574-43b4-92b7-0924d33402c8" d="M118.09 100l-107.46-.61A.79.79 0 0 1 10 99a64.56 64.56 0 1 1 108.8.61.8.8 0 0 1-.71.39zm-107-2.21l106.57.6a62.94 62.94 0 1 0-106.57-.6z"/><path class="f49ddda7-1749-4fc2-ae65-62e2c7baddc3" d="M18.75 61.34h-6a.77.77 0 1 1 0-1.54h6a.77.77 0 0 1 0 1.54zM113.11 65.31h-6a.77.77 0 1 1 0-1.54h6a.77.77 0 0 1 0 1.54zM13.93 74.39a.79.79 0 0 1-.75-.57.77.77 0 0 1 .55-.94l5.81-1.56a.77.77 0 1 1 .39 1.49l-5.8 1.55zM106.11 53.8a.76.76 0 0 1-.74-.57.77.77 0 0 1 .54-.94l5.81-1.55a.77.77 0 1 1 .4 1.48l-5.81 1.56a.68.68 0 0 1-.2.02zM18.46 86.69a.77.77 0 0 1-.38-1.44l5.21-3a.77.77 0 0 1 .77 1.33l-5.21 3a.76.76 0 0 1-.39.11zM102.17 42.94a.76.76 0 0 1-.67-.38.77.77 0 0 1 .28-1.05l5.22-3a.77.77 0 0 1 1 .28.78.78 0 0 1-.29 1.06l-5.21 3a.75.75 0 0 1-.33.09zM95.56 33.49a.75.75 0 0 1-.54-.22.77.77 0 0 1 0-1.09l4.25-4.26a.77.77 0 0 1 1.09 1.08l-4.25 4.26a.77.77 0 0 1-.55.23zM86.72 26.05a.75.75 0 0 1-.38-.1.76.76 0 0 1-.28-1.05l3-5.21a.77.77 0 0 1 1.34.77l-3 5.21a.76.76 0 0 1-.68.38zM76.28 21.16a.64.64 0 0 1-.2 0 .77.77 0 0 1-.55-.94l1.56-5.81a.77.77 0 1 1 1.49.39L77 20.59a.77.77 0 0 1-.72.57zM64.9 19.14a.77.77 0 0 1-.77-.77v-6a.77.77 0 1 1 1.54 0v6a.76.76 0 0 1-.77.77zM53.4 20.14a.79.79 0 0 1-.75-.57l-1.55-5.81a.77.77 0 1 1 1.49-.4l1.55 5.81a.77.77 0 0 1-.54.94zM42.55 24.07a.76.76 0 0 1-.67-.39l-3-5.2a.77.77 0 1 1 1.33-.78l3 5.21a.78.78 0 0 1-.66 1.16zM33.09 30.68a.77.77 0 0 1-.55-.22l-4.25-4.26a.77.77 0 0 1 1.09-1.09l4.25 4.26a.77.77 0 0 1 0 1.09.76.76 0 0 1-.54.22zM105.39 90.14A.76.76 0 0 1 105 90l-5.2-3a.77.77 0 1 1 .77-1.33l5.21 3a.77.77 0 0 1-.39 1.44zM25.65 39.52a.76.76 0 0 1-.38-.11l-5.21-3a.76.76 0 0 1-.28-1 .77.77 0 0 1 1-.28l5.21 3a.77.77 0 0 1-.39 1.44zM110.88 78.23h-.2l-5.8-1.55a.76.76 0 0 1-.55-.94.78.78 0 0 1 .94-.55l5.81 1.56a.77.77 0 0 1 .55.94.79.79 0 0 1-.75.54zM20.77 50a.64.64 0 0 1-.2 0l-5.81-1.56a.77.77 0 1 1 .39-1.48l5.85 1.5a.77.77 0 0 1-.23 1.54z"/><path d="M64.1 50.22a8.55 8.55 0 1 0 4.45 15.06L96.6 73l-25-15.31a8.55 8.55 0 0 0-7.5-7.47z" fill="#ec7724"/><path class="f49ddda7-1749-4fc2-ae65-62e2c7baddc3" d="M96.6 73.75a.76.76 0 0 1-.21 0l-27.67-7.62A9.23 9.23 0 0 1 62 68a9.32 9.32 0 1 1 2.17-18.51 9.27 9.27 0 0 1 8.09 7.74L97 72.32a.77.77 0 0 1-.4 1.43zm-28-9.24h.2l22.76 6.29-20.39-12.48a.75.75 0 0 1-.36-.56A7.77 7.77 0 0 0 64 51a7.78 7.78 0 1 0 4 13.71.77.77 0 0 1 .55-.2zM80.79 88.62H45.06a.77.77 0 0 1-.77-.77V76.7a.77.77 0 0 1 .77-.77h35.73a.78.78 0 0 1 .77.77v11.15a.78.78 0 0 1-.77.77zm-35-1.54H80v-9.61H45.83z"/><path class="f49ddda7-1749-4fc2-ae65-62e2c7baddc3" d="M53.07 80.42h3.03v3.71h-3.03zM58.63 80.42h3.03v3.71h-3.03zM64.18 80.42h3.03v3.71h-3.03zM69.74 80.42h3.03v3.71h-3.03z"/><path class="f49ddda7-1749-4fc2-ae65-62e2c7baddc3" d="M118.09 100l-107.46-.61A.79.79 0 0 1 10 99a64.56 64.56 0 1 1 108.8.61.8.8 0 0 1-.71.39zm-107-2.21l106.57.6a62.94 62.94 0 1 0-106.57-.6z"/></g></g></svg>