<svg xmlns="http://www.w3.org/2000/svg" width="94.56" height="100" viewBox="0 0 94.56 100"><defs><style>.af8c4b4a-7b14-4fcd-a98e-3e7704596ac1{fill:#e58025}</style></defs><g id="b9f4394b-9c0a-412d-88ef-57e0408bee1d" data-name="Layer 2"><g id="ea9161e8-7aab-44a5-83ce-6a6d321af3b1" data-name="Layer 1"><path class="af8c4b4a-7b14-4fcd-a98e-3e7704596ac1" d="M1 59.93a1 1 0 0 1-.69-.29 1 1 0 0 1 0-1.38l34.32-34.35a1 1 0 0 1 1.39 0L52.5 40.39 91.87 1a1 1 0 0 1 1.39 1.4L53.19 42.47a1 1 0 0 1-.69.29 1 1 0 0 1-.7-.29L35.33 26 1.67 59.64a1 1 0 0 1-.67.29zM46.77 100H23.88a1 1 0 0 1-1-1V66.64a3 3 0 0 1 2.94-3h19a3 3 0 0 1 2.94 3V99a1 1 0 0 1-.99 1zm-21.91-2h20.93V66.64a1 1 0 0 0-1-1h-19a1 1 0 0 0-1 1z"/><path class="af8c4b4a-7b14-4fcd-a98e-3e7704596ac1" d="M23.88 100H1a1 1 0 0 1-1-1V83.81a2.94 2.94 0 0 1 2.94-2.94h19a2.94 2.94 0 0 1 2.94 2.94V99a1 1 0 0 1-1 1zM2 98h20.9V83.81a1 1 0 0 0-1-1h-19a1 1 0 0 0-1 1zM69.67 100h-22.9a1 1 0 0 1-1-1V78.08a2.94 2.94 0 0 1 2.94-2.94h19a2.94 2.94 0 0 1 2.94 2.94V99a1 1 0 0 1-.98 1zm-21.92-2h20.94V78a1 1 0 0 0-1-1h-19a1 1 0 0 0-1 1z"/><path class="af8c4b4a-7b14-4fcd-a98e-3e7704596ac1" d="M92.57 100h-22.9a1 1 0 0 1-1-1V49.46a2.94 2.94 0 0 1 2.94-2.94h19a2.94 2.94 0 0 1 2.94 2.94V99a1 1 0 0 1-.98 1zm-21.92-2h20.94V49.46a1 1 0 0 0-1-1h-19a1 1 0 0 0-1 1zM93.58 15.87a1 1 0 0 1-1-1V2H79.67a1 1 0 0 1 0-2h13.91a1 1 0 0 1 1 1v13.89a1 1 0 0 1-1 .98z"/><path class="af8c4b4a-7b14-4fcd-a98e-3e7704596ac1" d="M1 59.93a1 1 0 0 1-.69-.29 1 1 0 0 1 0-1.38l34.32-34.35a1 1 0 0 1 1.39 0L52.5 40.39 91.87 1a1 1 0 0 1 1.39 1.4L53.19 42.47a1 1 0 0 1-.69.29 1 1 0 0 1-.7-.29L35.33 26 1.67 59.64a1 1 0 0 1-.67.29zM46.77 100H23.88a1 1 0 0 1-1-1V66.64a3 3 0 0 1 2.94-3h19a3 3 0 0 1 2.94 3V99a1 1 0 0 1-.99 1zm-21.91-2h20.93V66.64a1 1 0 0 0-1-1h-19a1 1 0 0 0-1 1z"/><path class="af8c4b4a-7b14-4fcd-a98e-3e7704596ac1" d="M23.88 100H1a1 1 0 0 1-1-1V83.81a2.94 2.94 0 0 1 2.94-2.94h19a2.94 2.94 0 0 1 2.94 2.94V99a1 1 0 0 1-1 1zM2 98h20.9V83.81a1 1 0 0 0-1-1h-19a1 1 0 0 0-1 1zM69.67 100h-22.9a1 1 0 0 1-1-1V78.08a2.94 2.94 0 0 1 2.94-2.94h19a2.94 2.94 0 0 1 2.94 2.94V99a1 1 0 0 1-.98 1zm-21.92-2h20.94V78a1 1 0 0 0-1-1h-19a1 1 0 0 0-1 1z"/><path class="af8c4b4a-7b14-4fcd-a98e-3e7704596ac1" d="M92.57 100h-22.9a1 1 0 0 1-1-1V49.46a2.94 2.94 0 0 1 2.94-2.94h19a2.94 2.94 0 0 1 2.94 2.94V99a1 1 0 0 1-.98 1zm-21.92-2h20.94V49.46a1 1 0 0 0-1-1h-19a1 1 0 0 0-1 1zM93.58 15.87a1 1 0 0 1-1-1V2H79.67a1 1 0 0 1 0-2h13.91a1 1 0 0 1 1 1v13.89a1 1 0 0 1-1 .98z"/><path class="af8c4b4a-7b14-4fcd-a98e-3e7704596ac1" d="M1 59.93a1 1 0 0 1-.69-.29 1 1 0 0 1 0-1.38l34.32-34.35a1 1 0 0 1 1.39 0L52.5 40.39 91.87 1a1 1 0 0 1 1.39 1.4L53.19 42.47a1 1 0 0 1-.69.29 1 1 0 0 1-.7-.29L35.33 26 1.67 59.64a1 1 0 0 1-.67.29zM46.77 100H23.88a1 1 0 0 1-1-1V66.64a3 3 0 0 1 2.94-3h19a3 3 0 0 1 2.94 3V99a1 1 0 0 1-.99 1zm-21.91-2h20.93V66.64a1 1 0 0 0-1-1h-19a1 1 0 0 0-1 1z"/><path class="af8c4b4a-7b14-4fcd-a98e-3e7704596ac1" d="M23.88 100H1a1 1 0 0 1-1-1V83.81a2.94 2.94 0 0 1 2.94-2.94h19a2.94 2.94 0 0 1 2.94 2.94V99a1 1 0 0 1-1 1zM2 98h20.9V83.81a1 1 0 0 0-1-1h-19a1 1 0 0 0-1 1zM69.67 100h-22.9a1 1 0 0 1-1-1V78.08a2.94 2.94 0 0 1 2.94-2.94h19a2.94 2.94 0 0 1 2.94 2.94V99a1 1 0 0 1-.98 1zm-21.92-2h20.94V78a1 1 0 0 0-1-1h-19a1 1 0 0 0-1 1z"/><path class="af8c4b4a-7b14-4fcd-a98e-3e7704596ac1" d="M92.57 100h-22.9a1 1 0 0 1-1-1V49.46a2.94 2.94 0 0 1 2.94-2.94h19a2.94 2.94 0 0 1 2.94 2.94V99a1 1 0 0 1-.98 1zm-21.92-2h20.94V49.46a1 1 0 0 0-1-1h-19a1 1 0 0 0-1 1zM93.58 15.87a1 1 0 0 1-1-1V2H79.67a1 1 0 0 1 0-2h13.91a1 1 0 0 1 1 1v13.89a1 1 0 0 1-1 .98z"/><path class="af8c4b4a-7b14-4fcd-a98e-3e7704596ac1" d="M1 59.93a1 1 0 0 1-.69-.29 1 1 0 0 1 0-1.38l34.32-34.35a1 1 0 0 1 1.39 0L52.5 40.39 91.87 1a1 1 0 0 1 1.39 1.4L53.19 42.47a1 1 0 0 1-.69.29 1 1 0 0 1-.7-.29L35.33 26 1.67 59.64a1 1 0 0 1-.67.29zM46.77 100H23.88a1 1 0 0 1-1-1V66.64a3 3 0 0 1 2.94-3h19a3 3 0 0 1 2.94 3V99a1 1 0 0 1-.99 1zm-21.91-2h20.93V66.64a1 1 0 0 0-1-1h-19a1 1 0 0 0-1 1z"/><path class="af8c4b4a-7b14-4fcd-a98e-3e7704596ac1" d="M23.88 100H1a1 1 0 0 1-1-1V83.81a2.94 2.94 0 0 1 2.94-2.94h19a2.94 2.94 0 0 1 2.94 2.94V99a1 1 0 0 1-1 1zM2 98h20.9V83.81a1 1 0 0 0-1-1h-19a1 1 0 0 0-1 1zM69.67 100h-22.9a1 1 0 0 1-1-1V78.08a2.94 2.94 0 0 1 2.94-2.94h19a2.94 2.94 0 0 1 2.94 2.94V99a1 1 0 0 1-.98 1zm-21.92-2h20.94V78a1 1 0 0 0-1-1h-19a1 1 0 0 0-1 1z"/><path class="af8c4b4a-7b14-4fcd-a98e-3e7704596ac1" d="M92.57 100h-22.9a1 1 0 0 1-1-1V49.46a2.94 2.94 0 0 1 2.94-2.94h19a2.94 2.94 0 0 1 2.94 2.94V99a1 1 0 0 1-.98 1zm-21.92-2h20.94V49.46a1 1 0 0 0-1-1h-19a1 1 0 0 0-1 1zM93.58 15.87a1 1 0 0 1-1-1V2H79.67a1 1 0 0 1 0-2h13.91a1 1 0 0 1 1 1v13.89a1 1 0 0 1-1 .98z"/></g></g></svg>