<svg xmlns="http://www.w3.org/2000/svg" width="96.45" height="102" viewBox="0 0 96.45 102"><defs><style>.af47bb09-dae4-492f-b7c0-43584cce57dd{fill:none;stroke:#e58025;stroke-linecap:round;stroke-linejoin:round;stroke-width:2px}</style></defs><g id="b511c397-ef1b-457d-ad90-8fc72a0d9ccf" data-name="Layer 2"><g id="b7b053fe-b536-4361-b995-d0985da9df5d" data-name="Layer 1"><path class="af47bb09-dae4-492f-b7c0-43584cce57dd" d="M1 60.13L36.03 25.1l17.52 17.51L94.42 1.74M26.35 66h19.36a2 2 0 0 1 2 2v33H24.35V68a2 2 0 0 1 2-2zM3 83.48h19.35a2 2 0 0 1 2 2V101H1V85.48a2 2 0 0 1 2-2zM49.71 77.65h19.35a2 2 0 0 1 2 2V101H47.71V79.65a2 2 0 0 1 2-2zM73.06 48.45h19.36a2 2 0 0 1 2 2V101H71.06V50.45a2 2 0 0 1 2-2z"/><path class="af47bb09-dae4-492f-b7c0-43584cce57dd" d="M95.45 15.19V1H81.26"/><path class="af47bb09-dae4-492f-b7c0-43584cce57dd" d="M1 60.13L36.03 25.1l17.52 17.51L94.42 1.74M26.35 66h19.36a2 2 0 0 1 2 2v33H24.35V68a2 2 0 0 1 2-2zM3 83.48h19.35a2 2 0 0 1 2 2V101H1V85.48a2 2 0 0 1 2-2zM49.71 77.65h19.35a2 2 0 0 1 2 2V101H47.71V79.65a2 2 0 0 1 2-2zM73.06 48.45h19.36a2 2 0 0 1 2 2V101H71.06V50.45a2 2 0 0 1 2-2z"/><path class="af47bb09-dae4-492f-b7c0-43584cce57dd" d="M95.45 15.19V1H81.26"/></g></g></svg>