<svg xmlns="http://www.w3.org/2000/svg" width="135.05" height="100" viewBox="0 0 135.05 100"><defs><style>.a55e3708-7c0f-4227-8f27-e925f49e82c4{fill:#e38025}</style></defs><g id="ac89a74d-c337-4b6a-a1a9-713f04463210" data-name="Layer 2"><g id="e1daaf16-f010-432e-b284-cafd50e3e406" data-name="svg"><path class="a55e3708-7c0f-4227-8f27-e925f49e82c4" d="M44.65 47.78a24 24 0 0 1-24.12-23.89 24.12 24.12 0 0 1 48.24 0 24 24 0 0 1-24.12 23.89zm0-45.78a22 22 0 0 0-22.08 21.89 22.08 22.08 0 0 0 44.16 0A22 22 0 0 0 44.65 2z"/><path class="a55e3708-7c0f-4227-8f27-e925f49e82c4" d="M44.65 47.78a24 24 0 0 1-24.12-23.89 24.12 24.12 0 0 1 48.24 0 24 24 0 0 1-24.12 23.89zm0-45.78a22 22 0 0 0-22.08 21.89 22.08 22.08 0 0 0 44.16 0A22 22 0 0 0 44.65 2zM83.15 100h-77A6.16 6.16 0 0 1 0 93.85a1.17 1.17 0 0 0 0-.43c0-23 20-41.63 44.65-41.63S89.3 70.46 89.3 93.42a1.49 1.49 0 0 1 0 .21 1.8 1.8 0 0 1 0 .22 6.16 6.16 0 0 1-6.15 6.15zm-38.5-46.18C21.15 53.82 2 71.59 2 93.42v.47A4.12 4.12 0 0 0 6.15 98h77a4.13 4.13 0 0 0 4.12-4.12v-.19a1.58 1.58 0 0 1 0-.28c-.03-21.85-19.14-39.59-42.62-39.59z"/><path class="a55e3708-7c0f-4227-8f27-e925f49e82c4" d="M83.15 100h-77A6.16 6.16 0 0 1 0 93.85a1.17 1.17 0 0 0 0-.43c0-23 20-41.63 44.65-41.63S89.3 70.46 89.3 93.42a1.49 1.49 0 0 1 0 .21 1.8 1.8 0 0 1 0 .22 6.16 6.16 0 0 1-6.15 6.15zm-38.5-46.18C21.15 53.82 2 71.59 2 93.42v.47A4.12 4.12 0 0 0 6.15 98h77a4.13 4.13 0 0 0 4.12-4.12v-.19a1.58 1.58 0 0 1 0-.28c-.03-21.85-19.14-39.59-42.62-39.59zM96.11 52.18a6.15 6.15 0 0 1-1.8-.28 6 6 0 0 1-2.79-1.77L78.83 36a6 6 0 0 1-1.56-4.44 5.82 5.82 0 0 1 2.06-4.27 5.88 5.88 0 0 1 4.43-1.54 5.8 5.8 0 0 1 4.23 2l8.43 9.39L124.6 9.86a5.91 5.91 0 0 1 4.3-1.76h.1a6 6 0 0 1 4.34 1.9 5.91 5.91 0 0 1 1.72 4.37 6 6 0 0 1-1.86 4.33l-32.8 31.75A6 6 0 0 1 97.54 52a6.42 6.42 0 0 1-1.43.18zM83.38 27.77a4.13 4.13 0 0 0-4.08 3.88 4 4 0 0 0 1 3L93 48.78A4 4 0 0 0 94.9 50a4.13 4.13 0 0 0 2.18.07A3.94 3.94 0 0 0 99 49l32.78-31.75a4 4 0 0 0 1.25-2.9 3.87 3.87 0 0 0-1.15-2.92 3.92 3.92 0 0 0-2.9-1.28 3.83 3.83 0 0 0-3 1.18L96.32 40.07l-9.85-10.95a3.76 3.76 0 0 0-2.81-1.34z"/><path class="a55e3708-7c0f-4227-8f27-e925f49e82c4" d="M96.11 52.18a6.15 6.15 0 0 1-1.8-.28 6 6 0 0 1-2.79-1.77L78.83 36a6 6 0 0 1-1.56-4.44 5.82 5.82 0 0 1 2.06-4.27 5.88 5.88 0 0 1 4.43-1.54 5.8 5.8 0 0 1 4.23 2l8.43 9.39L124.6 9.86a5.91 5.91 0 0 1 4.3-1.76h.1a6 6 0 0 1 4.34 1.9 5.91 5.91 0 0 1 1.72 4.37 6 6 0 0 1-1.86 4.33l-32.8 31.75A6 6 0 0 1 97.54 52a6.42 6.42 0 0 1-1.43.18zM83.38 27.77a4.13 4.13 0 0 0-4.08 3.88 4 4 0 0 0 1 3L93 48.78A4 4 0 0 0 94.9 50a4.13 4.13 0 0 0 2.18.07A3.94 3.94 0 0 0 99 49l32.78-31.75a4 4 0 0 0 1.25-2.9 3.87 3.87 0 0 0-1.15-2.92 3.92 3.92 0 0 0-2.9-1.28 3.83 3.83 0 0 0-3 1.18L96.32 40.07l-9.85-10.95a3.76 3.76 0 0 0-2.81-1.34z"/><path class="a55e3708-7c0f-4227-8f27-e925f49e82c4" d="M96.11 52.18a6.15 6.15 0 0 1-1.8-.28 6 6 0 0 1-2.79-1.77L78.83 36a6 6 0 0 1-1.56-4.44 5.82 5.82 0 0 1 2.06-4.27 5.88 5.88 0 0 1 4.43-1.54 5.8 5.8 0 0 1 4.23 2l8.43 9.39L124.6 9.86a5.91 5.91 0 0 1 4.3-1.76h.1a6 6 0 0 1 4.34 1.9 5.91 5.91 0 0 1 1.72 4.37 6 6 0 0 1-1.86 4.33l-32.8 31.75A6 6 0 0 1 97.54 52a6.42 6.42 0 0 1-1.43.18zM83.38 27.77a4.13 4.13 0 0 0-4.08 3.88 4 4 0 0 0 1 3L93 48.78A4 4 0 0 0 94.9 50a4.13 4.13 0 0 0 2.18.07A3.94 3.94 0 0 0 99 49l32.78-31.75a4 4 0 0 0 1.25-2.9 3.87 3.87 0 0 0-1.15-2.92 3.92 3.92 0 0 0-2.9-1.28 3.83 3.83 0 0 0-3 1.18L96.32 40.07l-9.85-10.95a3.76 3.76 0 0 0-2.81-1.34zM44.65 47.78a24 24 0 0 1-24.12-23.89 24.12 24.12 0 0 1 48.24 0 24 24 0 0 1-24.12 23.89zm0-45.78a22 22 0 0 0-22.08 21.89 22.08 22.08 0 0 0 44.16 0A22 22 0 0 0 44.65 2z"/><path class="a55e3708-7c0f-4227-8f27-e925f49e82c4" d="M44.65 47.78a24 24 0 0 1-24.12-23.89 24.12 24.12 0 0 1 48.24 0 24 24 0 0 1-24.12 23.89zm0-45.78a22 22 0 0 0-22.08 21.89 22.08 22.08 0 0 0 44.16 0A22 22 0 0 0 44.65 2zM83.15 100h-77A6.16 6.16 0 0 1 0 93.85a1.17 1.17 0 0 0 0-.43c0-23 20-41.63 44.65-41.63S89.3 70.46 89.3 93.42a1.49 1.49 0 0 1 0 .21 1.8 1.8 0 0 1 0 .22 6.16 6.16 0 0 1-6.15 6.15zm-38.5-46.18C21.15 53.82 2 71.59 2 93.42v.47A4.12 4.12 0 0 0 6.15 98h77a4.13 4.13 0 0 0 4.12-4.12v-.19a1.58 1.58 0 0 1 0-.28c-.03-21.85-19.14-39.59-42.62-39.59z"/><path class="a55e3708-7c0f-4227-8f27-e925f49e82c4" d="M83.15 100h-77A6.16 6.16 0 0 1 0 93.85a1.17 1.17 0 0 0 0-.43c0-23 20-41.63 44.65-41.63S89.3 70.46 89.3 93.42a1.49 1.49 0 0 1 0 .21 1.8 1.8 0 0 1 0 .22 6.16 6.16 0 0 1-6.15 6.15zm-38.5-46.18C21.15 53.82 2 71.59 2 93.42v.47A4.12 4.12 0 0 0 6.15 98h77a4.13 4.13 0 0 0 4.12-4.12v-.19a1.58 1.58 0 0 1 0-.28c-.03-21.85-19.14-39.59-42.62-39.59zM96.11 52.18a6.15 6.15 0 0 1-1.8-.28 6 6 0 0 1-2.79-1.77L78.83 36a6 6 0 0 1-1.56-4.44 5.82 5.82 0 0 1 2.06-4.27 5.88 5.88 0 0 1 4.43-1.54 5.8 5.8 0 0 1 4.23 2l8.43 9.39L124.6 9.86a5.91 5.91 0 0 1 4.3-1.76h.1a6 6 0 0 1 4.34 1.9 5.91 5.91 0 0 1 1.72 4.37 6 6 0 0 1-1.86 4.33l-32.8 31.75A6 6 0 0 1 97.54 52a6.42 6.42 0 0 1-1.43.18zM83.38 27.77a4.13 4.13 0 0 0-4.08 3.88 4 4 0 0 0 1 3L93 48.78A4 4 0 0 0 94.9 50a4.13 4.13 0 0 0 2.18.07A3.94 3.94 0 0 0 99 49l32.78-31.75a4 4 0 0 0 1.25-2.9 3.87 3.87 0 0 0-1.15-2.92 3.92 3.92 0 0 0-2.9-1.28 3.83 3.83 0 0 0-3 1.18L96.32 40.07l-9.85-10.95a3.76 3.76 0 0 0-2.81-1.34z"/><path class="a55e3708-7c0f-4227-8f27-e925f49e82c4" d="M96.11 52.18a6.15 6.15 0 0 1-1.8-.28 6 6 0 0 1-2.79-1.77L78.83 36a6 6 0 0 1-1.56-4.44 5.82 5.82 0 0 1 2.06-4.27 5.88 5.88 0 0 1 4.43-1.54 5.8 5.8 0 0 1 4.23 2l8.43 9.39L124.6 9.86a5.91 5.91 0 0 1 4.3-1.76h.1a6 6 0 0 1 4.34 1.9 5.91 5.91 0 0 1 1.72 4.37 6 6 0 0 1-1.86 4.33l-32.8 31.75A6 6 0 0 1 97.54 52a6.42 6.42 0 0 1-1.43.18zM83.38 27.77a4.13 4.13 0 0 0-4.08 3.88 4 4 0 0 0 1 3L93 48.78A4 4 0 0 0 94.9 50a4.13 4.13 0 0 0 2.18.07A3.94 3.94 0 0 0 99 49l32.78-31.75a4 4 0 0 0 1.25-2.9 3.87 3.87 0 0 0-1.15-2.92 3.92 3.92 0 0 0-2.9-1.28 3.83 3.83 0 0 0-3 1.18L96.32 40.07l-9.85-10.95a3.76 3.76 0 0 0-2.81-1.34z"/><path class="a55e3708-7c0f-4227-8f27-e925f49e82c4" d="M96.11 52.18a6.15 6.15 0 0 1-1.8-.28 6 6 0 0 1-2.79-1.77L78.83 36a6 6 0 0 1-1.56-4.44 5.82 5.82 0 0 1 2.06-4.27 5.88 5.88 0 0 1 4.43-1.54 5.8 5.8 0 0 1 4.23 2l8.43 9.39L124.6 9.86a5.91 5.91 0 0 1 4.3-1.76h.1a6 6 0 0 1 4.34 1.9 5.91 5.91 0 0 1 1.72 4.37 6 6 0 0 1-1.86 4.33l-32.8 31.75A6 6 0 0 1 97.54 52a6.42 6.42 0 0 1-1.43.18zM83.38 27.77a4.13 4.13 0 0 0-4.08 3.88 4 4 0 0 0 1 3L93 48.78A4 4 0 0 0 94.9 50a4.13 4.13 0 0 0 2.18.07A3.94 3.94 0 0 0 99 49l32.78-31.75a4 4 0 0 0 1.25-2.9 3.87 3.87 0 0 0-1.15-2.92 3.92 3.92 0 0 0-2.9-1.28 3.83 3.83 0 0 0-3 1.18L96.32 40.07l-9.85-10.95a3.76 3.76 0 0 0-2.81-1.34z"/></g></g></svg>