<svg xmlns="http://www.w3.org/2000/svg" viewBox="0 0 82 82"><path data-name="Path 97" d="M35.108 48.945c1.079.8 2.168 1.614 3.247 2.425-1.136 1.117-2.263 2.234-3.4 3.352-.105.105-.2.22-.306.334l.057-.735.402-5.376zm8.9-15.756q-8.25 5.2-16.51 10.418a3.212 3.212 0 0 1-.363.181c.726 2.3 1.442 4.612 2.158 6.913.516 1.623 1.05 3.247 1.528 4.87.2.678.544 1.041 1.28.907l.6-8.279c.029-.325.057-.649.105-.974a.4.4 0 0 1-.067-.63c.191-.2.382-.392.573-.592.067-.067.143-.124.2-.191.1-.1.191-.2.286-.3.458-.42.907-.859 1.365-1.28.258-.248.525-.487.783-.735.707-.659 1.413-1.318 2.129-1.977 1.824-1.661 3.7-3.285 5.519-4.937q3.495-3.165 6.98-6.369a9.1 9.1 0 0 0 .43-.8 3.627 3.627 0 0 0-1.232.181 467.855 467.855 0 0 0-5.764 3.594zM81 41A40 40 0 1 1 41 1a40 40 0 0 1 40 40zM58.856 25.063a7.116 7.116 0 0 0-.067-.458c-.353-1.7-1.28-2.215-2.951-1.642-.248.086-.5.134-.745.2-.926.382-1.852.793-2.788 1.146-1.566.592-3.142 1.136-4.717 1.709-.964.4-1.919.821-2.884 1.194q-3.638 1.418-7.3 2.817-7.505 2.893-15.02 5.787c-1.127.439-2.263.85-3.371 1.308a20.694 20.694 0 0 0-2.874 1.337 1.685 1.685 0 0 0-.793 1.27c.048.4.659.745 1.041 1.108a.647.647 0 0 0 .286.115l7.964 2.464a2.54 2.54 0 0 0 .105.84l.964 3.094 1.27 4.068c.153.468.3.936.449 1.394.363 1.136.735 2.3 1.079 3.447a3.432 3.432 0 0 0 3.342 2.674c.086 0 .181-.01.277-.01s.181.01.277.01a4.6 4.6 0 0 0 3.1-1.346c.105-.1.21-.181.286-.239a2.544 2.544 0 0 0 .334-.3c.076-.076.143-.162.22-.239.124-.134.239-.267.344-.372.888-.878 1.776-1.767 2.674-2.645l1.06-1.041c.153.105.3.21.449.306q3.609 2.693 7.228 5.4c1.8 1.337 3.065.984 3.934-1.05q.559-2.578 1.108-5.156l1-5.137c.21-.936.43-1.881.64-2.817l1.69-7.945.544-2.53c.048-.2.1-.4.134-.6l1.711-8.161z" fill="none" stroke="#fff" stroke-miterlimit="10" stroke-width="2"/></svg>