<svg xmlns="http://www.w3.org/2000/svg" viewBox="0 0 83 83"><defs><style>.a{fill:none;stroke:#e98024;stroke-miterlimit:10;stroke-width:2px}</style></defs><path class="a" d="M1.5 1.5h80v60.87h-80zM11.065 81.5h60.87M55.413 81.5H27.587l5.217-19.13h17.392zM1.5 50.196h80"/><path class="a" d="M11.935 39.761V13.674h3.478l5.222 15.652 5.213-15.652h3.478v26.087M34.543 13.674h17.391M43.239 11.935v27.826M57.152 32.804a5.124 5.124 0 0 0 5.217 5.217h3.483a5.124 5.124 0 0 0 5.217-5.217v-3.478a5.124 5.124 0 0 0-5.217-5.217h-8.7V13.674h13.913"/></svg>