<svg xmlns="http://www.w3.org/2000/svg" width="127.32" height="100" viewBox="0 0 127.32 100"><defs><style>.b09455c3-9d1f-4944-8d18-21d58f190232{fill:#e58025}.b0dc6aa6-fe41-4f55-ad68-7f029002b10f{fill:#ee7623}</style></defs><g id="ac927683-9aa8-42c7-9842-983281473974" data-name="Layer 2"><g id="e1380249-f026-4b04-8f53-1ae3ac25b07f" data-name="Layer 1"><path class="b09455c3-9d1f-4944-8d18-21d58f190232" d="M57 41.59H3.31A3.31 3.31 0 0 1 0 38.28V9a3.31 3.31 0 0 1 3.31-3.31H57A3.32 3.32 0 0 1 60.29 9v29.28A3.32 3.32 0 0 1 57 41.59zM3.31 7.71A1.29 1.29 0 0 0 2 9v29.28a1.29 1.29 0 0 0 1.29 1.29H57a1.29 1.29 0 0 0 1.29-1.29V9A1.29 1.29 0 0 0 57 7.71zM54.68 37H5.61a1 1 0 0 1-1-1V11.3a1 1 0 0 1 1-1h49.07a1 1 0 0 1 1 1V36a1 1 0 0 1-1 1zM6.62 35h47.05V12.31H6.62z"/><path class="b09455c3-9d1f-4944-8d18-21d58f190232" d="M30.14 31.08a7.45 7.45 0 1 1 7.45-7.44 7.45 7.45 0 0 1-7.45 7.44zm0-13.26A5.82 5.82 0 1 0 36 23.64a5.83 5.83 0 0 0-5.86-5.82zM55.9 75.44a1 1 0 0 1-.71-.29 1 1 0 0 1 0-1.43l22.62-22.64a1.3 1.3 0 0 0 .38-.91V17.46a1 1 0 1 1 2 0v32.71a3.34 3.34 0 0 1-1 2.34L56.61 75.15a1 1 0 0 1-.71.29z"/><path class="b09455c3-9d1f-4944-8d18-21d58f190232" d="M77.32 100a50.14 50.14 0 0 1-49-39.92l2-.41A48 48 0 1 0 77.32 2V0a50 50 0 0 1 0 100z"/><path class="b09455c3-9d1f-4944-8d18-21d58f190232" d="M21.19 72.22a.75.75 0 0 1-.43-.13.78.78 0 0 1-.23-1.09l8-12.5a.82.82 0 0 1 .49-.34.8.8 0 0 1 .59.11l12.5 8a.79.79 0 0 1 .23 1.09.78.78 0 0 1-1.08.23L29.46 60l-7.61 11.86a.8.8 0 0 1-.66.36z"/><path class="b0dc6aa6-fe41-4f55-ad68-7f029002b10f" d="M57 41.59H3.31A3.31 3.31 0 0 1 0 38.28V9a3.31 3.31 0 0 1 3.31-3.31H57A3.32 3.32 0 0 1 60.29 9v29.28A3.32 3.32 0 0 1 57 41.59zM3.31 7.71A1.29 1.29 0 0 0 2 9v29.28a1.29 1.29 0 0 0 1.29 1.29H57a1.29 1.29 0 0 0 1.29-1.29V9A1.29 1.29 0 0 0 57 7.71zM54.68 37H5.61a1 1 0 0 1-1-1V11.3a1 1 0 0 1 1-1h49.07a1 1 0 0 1 1 1V36a1 1 0 0 1-1 1zM6.62 35h47.05V12.31H6.62z"/><path class="b0dc6aa6-fe41-4f55-ad68-7f029002b10f" d="M30.14 31.08a7.45 7.45 0 1 1 7.45-7.44 7.45 7.45 0 0 1-7.45 7.44zm0-13.26A5.82 5.82 0 1 0 36 23.64a5.83 5.83 0 0 0-5.86-5.82zM55.9 75.44a1 1 0 0 1-.71-.29 1 1 0 0 1 0-1.43l22.62-22.64a1.3 1.3 0 0 0 .38-.91V17.46a1 1 0 1 1 2 0v32.71a3.34 3.34 0 0 1-1 2.34L56.61 75.15a1 1 0 0 1-.71.29z"/><path class="b0dc6aa6-fe41-4f55-ad68-7f029002b10f" d="M77.32 100a50.14 50.14 0 0 1-49-39.92l2-.41A48 48 0 1 0 77.32 2V0a50 50 0 0 1 0 100z"/><path class="b09455c3-9d1f-4944-8d18-21d58f190232" d="M21.19 72.22a.75.75 0 0 1-.43-.13.78.78 0 0 1-.23-1.09l8-12.5a.82.82 0 0 1 .49-.34.8.8 0 0 1 .59.11l12.5 8a.79.79 0 0 1 .23 1.09.78.78 0 0 1-1.08.23L29.46 60l-7.61 11.86a.8.8 0 0 1-.66.36z"/></g></g></svg>