<svg xmlns="http://www.w3.org/2000/svg" width="87.25" height="100" viewBox="0 0 87.25 100"><defs><style>.bcf819e8-091b-47f2-a564-f2eb52f03640{fill:#e58025}</style></defs><g id="ae98b789-4c33-4123-be7d-7bad6facfd03" data-name="Layer 2"><g id="ebe41566-9644-4f5d-b96d-c0a7da47b53e" data-name="Layer 1"><path class="bcf819e8-091b-47f2-a564-f2eb52f03640" d="M22.7 40.09h-8.92L51.9 2c2.61-2.6 4.93-2.6 7.54 0L85.3 27.83c2.61 2.61 2.61 4.93 0 7.54l-4.72 4.72h-7.33l-.25-.51a16.89 16.89 0 0 1-.28-15.44l-9.58-9.58a16.88 16.88 0 0 1-14.9 0zm-4.19-2h3.38l26-26 .65.36a14.87 14.87 0 0 0 14.32 0l.65-.36 11.61 11.7-.36.65a14.91 14.91 0 0 0-.33 13.69h5.34L83.91 34c1.83-1.82 1.83-2.94 0-4.76L58.05 3.34c-1.83-1.83-2.94-1.82-4.76 0z"/><path class="bcf819e8-091b-47f2-a564-f2eb52f03640" d="M68.35 100H10.24C3.06 100 0 96.94 0 89.76v-46c0-10.23 5.44-14.8 17.63-14.8h5l-6.9 6.91h-1.19c-3.08 0-4.48 1.74-4.48 3.36a3.11 3.11 0 0 0 1.13 2.37A5.66 5.66 0 0 0 15 42.76h53.35c7.18 0 10.24 3.06 10.24 10.25v5.54H62c-8.08 0-12.91 4.82-12.91 12.91S53.9 84.3 62 84.3h15.56l1-.06v5.55c.03 7.15-3.03 10.21-10.21 10.21zM17.63 30.9C6.5 30.9 2 34.62 2 43.74v46C2 95.87 4.13 98 10.24 98h58.11c6.12 0 8.28-2.17 8.28-8.28v-3.5H62c-9.17 0-14.87-5.7-14.87-14.88S52.81 56.51 62 56.51h14.63V53c0-6.12-2.16-8.29-8.28-8.29H15a7.56 7.56 0 0 1-5.1-1.65 5.12 5.12 0 0 1-1.8-3.85c0-2.64 2.21-5.32 6.44-5.32H15l3-3z"/><path class="bcf819e8-091b-47f2-a564-f2eb52f03640" d="M76.65 82.4H62c-6.89 0-11-4.12-11-11s4.12-11 11-11h14.65c4.95 0 7.16 2.2 7.16 7.15v7.72c0 4.92-2.21 7.13-7.16 7.13zM62 62.33c-7.87 0-9 5.67-9 9s1.18 9.06 9 9.06h14.65c3.89 0 5.2-1.31 5.2-5.2v-7.67c0-3.88-1.31-5.19-5.2-5.19zM63.53 77a5.61 5.61 0 1 1 5.61-5.61A5.61 5.61 0 0 1 63.53 77zm0-9.26a3.65 3.65 0 1 0 3.65 3.65 3.66 3.66 0 0 0-3.65-3.66zM22.7 40.09h-8.92L51.9 2c2.61-2.6 4.93-2.6 7.54 0L85.3 27.83c2.61 2.61 2.61 4.93 0 7.54l-4.72 4.72h-7.33l-.25-.51a16.89 16.89 0 0 1-.28-15.44l-9.58-9.58a16.88 16.88 0 0 1-14.9 0zm-4.19-2h3.38l26-26 .65.36a14.87 14.87 0 0 0 14.32 0l.65-.36 11.61 11.7-.36.65a14.91 14.91 0 0 0-.33 13.69h5.34L83.91 34c1.83-1.82 1.83-2.94 0-4.76L58.05 3.34c-1.83-1.83-2.94-1.82-4.76 0z"/><path class="bcf819e8-091b-47f2-a564-f2eb52f03640" d="M22.7 40.09h-8.92L51.9 2c2.61-2.6 4.93-2.6 7.54 0L85.3 27.83c2.61 2.61 2.61 4.93 0 7.54l-4.72 4.72h-7.33l-.25-.51a16.89 16.89 0 0 1-.28-15.44l-9.58-9.58a16.88 16.88 0 0 1-14.9 0zm-4.19-2h3.38l26-26 .65.36a14.87 14.87 0 0 0 14.32 0l.65-.36 11.61 11.7-.36.65a14.91 14.91 0 0 0-.33 13.69h5.34L83.91 34c1.83-1.82 1.83-2.94 0-4.76L58.05 3.34c-1.83-1.83-2.94-1.82-4.76 0z"/><path class="bcf819e8-091b-47f2-a564-f2eb52f03640" d="M68.35 100H10.24C3.06 100 0 96.94 0 89.76v-46c0-10.23 5.44-14.8 17.63-14.8h5l-6.9 6.91h-1.19c-3.08 0-4.48 1.74-4.48 3.36a3.11 3.11 0 0 0 1.13 2.37A5.66 5.66 0 0 0 15 42.76h53.35c7.18 0 10.24 3.06 10.24 10.25v5.54H62c-8.08 0-12.91 4.82-12.91 12.91S53.9 84.3 62 84.3h15.56l1-.06v5.55c.03 7.15-3.03 10.21-10.21 10.21zM17.63 30.9C6.5 30.9 2 34.62 2 43.74v46C2 95.87 4.13 98 10.24 98h58.11c6.12 0 8.28-2.17 8.28-8.28v-3.5H62c-9.17 0-14.87-5.7-14.87-14.88S52.81 56.51 62 56.51h14.63V53c0-6.12-2.16-8.29-8.28-8.29H15a7.56 7.56 0 0 1-5.1-1.65 5.12 5.12 0 0 1-1.8-3.85c0-2.64 2.21-5.32 6.44-5.32H15l3-3z"/><path class="bcf819e8-091b-47f2-a564-f2eb52f03640" d="M68.35 100H10.24C3.06 100 0 96.94 0 89.76v-46c0-10.23 5.44-14.8 17.63-14.8h5l-6.9 6.91h-1.19c-3.08 0-4.48 1.74-4.48 3.36a3.11 3.11 0 0 0 1.13 2.37A5.66 5.66 0 0 0 15 42.76h53.35c7.18 0 10.24 3.06 10.24 10.25v5.54H62c-8.08 0-12.91 4.82-12.91 12.91S53.9 84.3 62 84.3h15.56l1-.06v5.55c.03 7.15-3.03 10.21-10.21 10.21zM17.63 30.9C6.5 30.9 2 34.62 2 43.74v46C2 95.87 4.13 98 10.24 98h58.11c6.12 0 8.28-2.17 8.28-8.28v-3.5H62c-9.17 0-14.87-5.7-14.87-14.88S52.81 56.51 62 56.51h14.63V53c0-6.12-2.16-8.29-8.28-8.29H15a7.56 7.56 0 0 1-5.1-1.65 5.12 5.12 0 0 1-1.8-3.85c0-2.64 2.21-5.32 6.44-5.32H15l3-3z"/><path class="bcf819e8-091b-47f2-a564-f2eb52f03640" d="M76.65 82.4H62c-6.89 0-11-4.12-11-11s4.12-11 11-11h14.65c4.95 0 7.16 2.2 7.16 7.15v7.72c0 4.92-2.21 7.13-7.16 7.13zM62 62.33c-7.87 0-9 5.67-9 9s1.18 9.06 9 9.06h14.65c3.89 0 5.2-1.31 5.2-5.2v-7.67c0-3.88-1.31-5.19-5.2-5.19zM63.53 77a5.61 5.61 0 1 1 5.61-5.61A5.61 5.61 0 0 1 63.53 77zm0-9.26a3.65 3.65 0 1 0 3.65 3.65 3.66 3.66 0 0 0-3.65-3.66z"/><path class="bcf819e8-091b-47f2-a564-f2eb52f03640" d="M76.65 82.4H62c-6.89 0-11-4.12-11-11s4.12-11 11-11h14.65c4.95 0 7.16 2.2 7.16 7.15v7.72c0 4.92-2.21 7.13-7.16 7.13zM62 62.33c-7.87 0-9 5.67-9 9s1.18 9.06 9 9.06h14.65c3.89 0 5.2-1.31 5.2-5.2v-7.67c0-3.88-1.31-5.19-5.2-5.19zM63.53 77a5.61 5.61 0 1 1 5.61-5.61A5.61 5.61 0 0 1 63.53 77zm0-9.26a3.65 3.65 0 1 0 3.65 3.65 3.66 3.66 0 0 0-3.65-3.66zM49.33 35a3.81 3.81 0 0 1-2.76-1.09c-1.64-1.64-1.4-4.54.52-6.46a5.13 5.13 0 0 1 4.58-1.53.78.78 0 1 1-.32 1.53 3.56 3.56 0 0 0-3.15 1.11c-1.31 1.31-1.55 3.22-.52 4.24s2.94.8 4.25-.52A.78.78 0 0 1 53 33.37 5.31 5.31 0 0 1 49.33 35z"/><path class="bcf819e8-091b-47f2-a564-f2eb52f03640" d="M54.47 39.82a.79.79 0 0 1-.07-1.57 3.87 3.87 0 0 0 2.36-1.14c1.31-1.32 1.55-3.23.52-4.25a2.36 2.36 0 0 0-1.94-.63A3.84 3.84 0 0 0 53 33.38a.78.78 0 0 1-1.11-1.11 5.43 5.43 0 0 1 3.27-1.6 3.89 3.89 0 0 1 3.2 1.08c1.64 1.64 1.4 4.54-.52 6.46a5.38 5.38 0 0 1-3.34 1.61z"/><path class="bcf819e8-091b-47f2-a564-f2eb52f03640" d="M58.12 39.59a.78.78 0 0 1-.55-.23L44.63 26.42a.78.78 0 0 1 0-1.11.77.77 0 0 1 1.1 0l13 12.94a.8.8 0 0 1 0 1.11.82.82 0 0 1-.61.23z"/><path class="bcf819e8-091b-47f2-a564-f2eb52f03640" d="M49.33 35.18a4 4 0 0 1-2.9-1.18c-1.71-1.71-1.48-4.74.52-6.74a5.37 5.37 0 0 1 4.76-1.59 1 1 0 0 1-.4 1.92 3.39 3.39 0 0 0-3 1.05c-1.24 1.24-1.47 3-.52 4s2.73.71 4-.53a1 1 0 0 1 1.39 1.39 5.55 5.55 0 0 1-3.85 1.68z"/><path class="bcf819e8-091b-47f2-a564-f2eb52f03640" d="M49.33 35.18a4 4 0 0 1-2.9-1.18c-1.71-1.71-1.48-4.74.52-6.74a5.37 5.37 0 0 1 4.76-1.59 1 1 0 0 1-.4 1.92 3.39 3.39 0 0 0-3 1.05c-1.24 1.24-1.47 3-.52 4s2.73.71 4-.53a1 1 0 0 1 1.39 1.39 5.55 5.55 0 0 1-3.85 1.68z"/><path class="bcf819e8-091b-47f2-a564-f2eb52f03640" d="M54.47 40a1 1 0 0 1-.08-1.95A3.69 3.69 0 0 0 56.62 37c1.24-1.24 1.47-3 .52-4a2.17 2.17 0 0 0-1.78-.56 3.59 3.59 0 0 0-2.19 1.09 1 1 0 0 1-1.39-1.39 5.59 5.59 0 0 1 3.39-1.65 4.07 4.07 0 0 1 3.36 1.13c1.71 1.71 1.48 4.74-.52 6.74A5.56 5.56 0 0 1 54.54 40z"/><path class="bcf819e8-091b-47f2-a564-f2eb52f03640" d="M54.47 40a1 1 0 0 1-.08-1.95A3.69 3.69 0 0 0 56.62 37c1.24-1.24 1.47-3 .52-4a2.17 2.17 0 0 0-1.78-.56 3.59 3.59 0 0 0-2.19 1.09 1 1 0 0 1-1.39-1.39 5.59 5.59 0 0 1 3.39-1.65 4.07 4.07 0 0 1 3.36 1.13c1.71 1.71 1.48 4.74-.52 6.74A5.56 5.56 0 0 1 54.54 40z"/><path class="bcf819e8-091b-47f2-a564-f2eb52f03640" d="M58.12 39.78a1 1 0 0 1-.69-.28L44.49 26.55a1 1 0 1 1 1.38-1.38l13 12.94a1 1 0 0 1 0 1.39 1 1 0 0 1-.75.28z"/><path class="bcf819e8-091b-47f2-a564-f2eb52f03640" d="M58.12 39.78a1 1 0 0 1-.69-.28L44.49 26.55a1 1 0 1 1 1.38-1.38l13 12.94a1 1 0 0 1 0 1.39 1 1 0 0 1-.75.28z"/><path class="bcf819e8-091b-47f2-a564-f2eb52f03640" d="M65.16 40.11L40.45 40l-.26-.54a13.88 13.88 0 0 1-1.45-6.24 14.11 14.11 0 1 1 28.22 0 13.87 13.87 0 0 1-1.53 6.39zM41.69 38l22.25.14A12.15 12.15 0 1 0 41.69 38z"/><path class="bcf819e8-091b-47f2-a564-f2eb52f03640" d="M22.7 40.09h-8.92L51.9 2c2.61-2.6 4.93-2.6 7.54 0L85.3 27.83c2.61 2.61 2.61 4.93 0 7.54l-4.72 4.72h-7.33l-.25-.51a16.89 16.89 0 0 1-.28-15.44l-9.58-9.58a16.88 16.88 0 0 1-14.9 0zm-4.19-2h3.38l26-26 .65.36a14.87 14.87 0 0 0 14.32 0l.65-.36 11.61 11.7-.36.65a14.91 14.91 0 0 0-.33 13.69h5.34L83.91 34c1.83-1.82 1.83-2.94 0-4.76L58.05 3.34c-1.83-1.83-2.94-1.82-4.76 0z"/><path class="bcf819e8-091b-47f2-a564-f2eb52f03640" d="M68.35 100H10.24C3.06 100 0 96.94 0 89.76v-46c0-10.23 5.44-14.8 17.63-14.8h5l-6.9 6.91h-1.19c-3.08 0-4.48 1.74-4.48 3.36a3.11 3.11 0 0 0 1.13 2.37A5.66 5.66 0 0 0 15 42.76h53.35c7.18 0 10.24 3.06 10.24 10.25v5.54H62c-8.08 0-12.91 4.82-12.91 12.91S53.9 84.3 62 84.3h15.56l1-.06v5.55c.03 7.15-3.03 10.21-10.21 10.21zM17.63 30.9C6.5 30.9 2 34.62 2 43.74v46C2 95.87 4.13 98 10.24 98h58.11c6.12 0 8.28-2.17 8.28-8.28v-3.5H62c-9.17 0-14.87-5.7-14.87-14.88S52.81 56.51 62 56.51h14.63V53c0-6.12-2.16-8.29-8.28-8.29H15a7.56 7.56 0 0 1-5.1-1.65 5.12 5.12 0 0 1-1.8-3.85c0-2.64 2.21-5.32 6.44-5.32H15l3-3z"/><path class="bcf819e8-091b-47f2-a564-f2eb52f03640" d="M76.65 82.4H62c-6.89 0-11-4.12-11-11s4.12-11 11-11h14.65c4.95 0 7.16 2.2 7.16 7.15v7.72c0 4.92-2.21 7.13-7.16 7.13zM62 62.33c-7.87 0-9 5.67-9 9s1.18 9.06 9 9.06h14.65c3.89 0 5.2-1.31 5.2-5.2v-7.67c0-3.88-1.31-5.19-5.2-5.19zM63.53 77a5.61 5.61 0 1 1 5.61-5.61A5.61 5.61 0 0 1 63.53 77zm0-9.26a3.65 3.65 0 1 0 3.65 3.65 3.66 3.66 0 0 0-3.65-3.66zM22.7 40.09h-8.92L51.9 2c2.61-2.6 4.93-2.6 7.54 0L85.3 27.83c2.61 2.61 2.61 4.93 0 7.54l-4.72 4.72h-7.33l-.25-.51a16.89 16.89 0 0 1-.28-15.44l-9.58-9.58a16.88 16.88 0 0 1-14.9 0zm-4.19-2h3.38l26-26 .65.36a14.87 14.87 0 0 0 14.32 0l.65-.36 11.61 11.7-.36.65a14.91 14.91 0 0 0-.33 13.69h5.34L83.91 34c1.83-1.82 1.83-2.94 0-4.76L58.05 3.34c-1.83-1.83-2.94-1.82-4.76 0z"/><path class="bcf819e8-091b-47f2-a564-f2eb52f03640" d="M22.7 40.09h-8.92L51.9 2c2.61-2.6 4.93-2.6 7.54 0L85.3 27.83c2.61 2.61 2.61 4.93 0 7.54l-4.72 4.72h-7.33l-.25-.51a16.89 16.89 0 0 1-.28-15.44l-9.58-9.58a16.88 16.88 0 0 1-14.9 0zm-4.19-2h3.38l26-26 .65.36a14.87 14.87 0 0 0 14.32 0l.65-.36 11.61 11.7-.36.65a14.91 14.91 0 0 0-.33 13.69h5.34L83.91 34c1.83-1.82 1.83-2.94 0-4.76L58.05 3.34c-1.83-1.83-2.94-1.82-4.76 0z"/><path class="bcf819e8-091b-47f2-a564-f2eb52f03640" d="M68.35 100H10.24C3.06 100 0 96.94 0 89.76v-46c0-10.23 5.44-14.8 17.63-14.8h5l-6.9 6.91h-1.19c-3.08 0-4.48 1.74-4.48 3.36a3.11 3.11 0 0 0 1.13 2.37A5.66 5.66 0 0 0 15 42.76h53.35c7.18 0 10.24 3.06 10.24 10.25v5.54H62c-8.08 0-12.91 4.82-12.91 12.91S53.9 84.3 62 84.3h15.56l1-.06v5.55c.03 7.15-3.03 10.21-10.21 10.21zM17.63 30.9C6.5 30.9 2 34.62 2 43.74v46C2 95.87 4.13 98 10.24 98h58.11c6.12 0 8.28-2.17 8.28-8.28v-3.5H62c-9.17 0-14.87-5.7-14.87-14.88S52.81 56.51 62 56.51h14.63V53c0-6.12-2.16-8.29-8.28-8.29H15a7.56 7.56 0 0 1-5.1-1.65 5.12 5.12 0 0 1-1.8-3.85c0-2.64 2.21-5.32 6.44-5.32H15l3-3z"/><path class="bcf819e8-091b-47f2-a564-f2eb52f03640" d="M68.35 100H10.24C3.06 100 0 96.94 0 89.76v-46c0-10.23 5.44-14.8 17.63-14.8h5l-6.9 6.91h-1.19c-3.08 0-4.48 1.74-4.48 3.36a3.11 3.11 0 0 0 1.13 2.37A5.66 5.66 0 0 0 15 42.76h53.35c7.18 0 10.24 3.06 10.24 10.25v5.54H62c-8.08 0-12.91 4.82-12.91 12.91S53.9 84.3 62 84.3h15.56l1-.06v5.55c.03 7.15-3.03 10.21-10.21 10.21zM17.63 30.9C6.5 30.9 2 34.62 2 43.74v46C2 95.87 4.13 98 10.24 98h58.11c6.12 0 8.28-2.17 8.28-8.28v-3.5H62c-9.17 0-14.87-5.7-14.87-14.88S52.81 56.51 62 56.51h14.63V53c0-6.12-2.16-8.29-8.28-8.29H15a7.56 7.56 0 0 1-5.1-1.65 5.12 5.12 0 0 1-1.8-3.85c0-2.64 2.21-5.32 6.44-5.32H15l3-3z"/><path class="bcf819e8-091b-47f2-a564-f2eb52f03640" d="M76.65 82.4H62c-6.89 0-11-4.12-11-11s4.12-11 11-11h14.65c4.95 0 7.16 2.2 7.16 7.15v7.72c0 4.92-2.21 7.13-7.16 7.13zM62 62.33c-7.87 0-9 5.67-9 9s1.18 9.06 9 9.06h14.65c3.89 0 5.2-1.31 5.2-5.2v-7.67c0-3.88-1.31-5.19-5.2-5.19zM63.53 77a5.61 5.61 0 1 1 5.61-5.61A5.61 5.61 0 0 1 63.53 77zm0-9.26a3.65 3.65 0 1 0 3.65 3.65 3.66 3.66 0 0 0-3.65-3.66z"/><path class="bcf819e8-091b-47f2-a564-f2eb52f03640" d="M76.65 82.4H62c-6.89 0-11-4.12-11-11s4.12-11 11-11h14.65c4.95 0 7.16 2.2 7.16 7.15v7.72c0 4.92-2.21 7.13-7.16 7.13zM62 62.33c-7.87 0-9 5.67-9 9s1.18 9.06 9 9.06h14.65c3.89 0 5.2-1.31 5.2-5.2v-7.67c0-3.88-1.31-5.19-5.2-5.19zM63.53 77a5.61 5.61 0 1 1 5.61-5.61A5.61 5.61 0 0 1 63.53 77zm0-9.26a3.65 3.65 0 1 0 3.65 3.65 3.66 3.66 0 0 0-3.65-3.66zM49.33 35a3.81 3.81 0 0 1-2.76-1.09c-1.64-1.64-1.4-4.54.52-6.46a5.13 5.13 0 0 1 4.58-1.53.78.78 0 1 1-.32 1.53 3.56 3.56 0 0 0-3.15 1.11c-1.31 1.31-1.55 3.22-.52 4.24s2.94.8 4.25-.52A.78.78 0 0 1 53 33.37 5.31 5.31 0 0 1 49.33 35z"/><path class="bcf819e8-091b-47f2-a564-f2eb52f03640" d="M54.47 39.82a.79.79 0 0 1-.07-1.57 3.87 3.87 0 0 0 2.36-1.14c1.31-1.32 1.55-3.23.52-4.25a2.36 2.36 0 0 0-1.94-.63A3.84 3.84 0 0 0 53 33.38a.78.78 0 0 1-1.11-1.11 5.43 5.43 0 0 1 3.27-1.6 3.89 3.89 0 0 1 3.2 1.08c1.64 1.64 1.4 4.54-.52 6.46a5.38 5.38 0 0 1-3.34 1.61z"/><path class="bcf819e8-091b-47f2-a564-f2eb52f03640" d="M58.12 39.59a.78.78 0 0 1-.55-.23L44.63 26.42a.78.78 0 0 1 0-1.11.77.77 0 0 1 1.1 0l13 12.94a.8.8 0 0 1 0 1.11.82.82 0 0 1-.61.23z"/><path class="bcf819e8-091b-47f2-a564-f2eb52f03640" d="M49.33 35.18a4 4 0 0 1-2.9-1.18c-1.71-1.71-1.48-4.74.52-6.74a5.37 5.37 0 0 1 4.76-1.59 1 1 0 0 1-.4 1.92 3.39 3.39 0 0 0-3 1.05c-1.24 1.24-1.47 3-.52 4s2.73.71 4-.53a1 1 0 0 1 1.39 1.39 5.55 5.55 0 0 1-3.85 1.68z"/><path class="bcf819e8-091b-47f2-a564-f2eb52f03640" d="M49.33 35.18a4 4 0 0 1-2.9-1.18c-1.71-1.71-1.48-4.74.52-6.74a5.37 5.37 0 0 1 4.76-1.59 1 1 0 0 1-.4 1.92 3.39 3.39 0 0 0-3 1.05c-1.24 1.24-1.47 3-.52 4s2.73.71 4-.53a1 1 0 0 1 1.39 1.39 5.55 5.55 0 0 1-3.85 1.68z"/><path class="bcf819e8-091b-47f2-a564-f2eb52f03640" d="M54.47 40a1 1 0 0 1-.08-1.95A3.69 3.69 0 0 0 56.62 37c1.24-1.24 1.47-3 .52-4a2.17 2.17 0 0 0-1.78-.56 3.59 3.59 0 0 0-2.19 1.09 1 1 0 0 1-1.39-1.39 5.59 5.59 0 0 1 3.39-1.65 4.07 4.07 0 0 1 3.36 1.13c1.71 1.71 1.48 4.74-.52 6.74A5.56 5.56 0 0 1 54.54 40z"/><path class="bcf819e8-091b-47f2-a564-f2eb52f03640" d="M54.47 40a1 1 0 0 1-.08-1.95A3.69 3.69 0 0 0 56.62 37c1.24-1.24 1.47-3 .52-4a2.17 2.17 0 0 0-1.78-.56 3.59 3.59 0 0 0-2.19 1.09 1 1 0 0 1-1.39-1.39 5.59 5.59 0 0 1 3.39-1.65 4.07 4.07 0 0 1 3.36 1.13c1.71 1.71 1.48 4.74-.52 6.74A5.56 5.56 0 0 1 54.54 40z"/><path class="bcf819e8-091b-47f2-a564-f2eb52f03640" d="M58.12 39.78a1 1 0 0 1-.69-.28L44.49 26.55a1 1 0 1 1 1.38-1.38l13 12.94a1 1 0 0 1 0 1.39 1 1 0 0 1-.75.28z"/><path class="bcf819e8-091b-47f2-a564-f2eb52f03640" d="M58.12 39.78a1 1 0 0 1-.69-.28L44.49 26.55a1 1 0 1 1 1.38-1.38l13 12.94a1 1 0 0 1 0 1.39 1 1 0 0 1-.75.28z"/><path class="bcf819e8-091b-47f2-a564-f2eb52f03640" d="M65.16 40.11L40.45 40l-.26-.54a13.88 13.88 0 0 1-1.45-6.24 14.11 14.11 0 1 1 28.22 0 13.87 13.87 0 0 1-1.53 6.39zM41.69 38l22.25.14A12.15 12.15 0 1 0 41.69 38z"/></g></g></svg>