<svg xmlns="http://www.w3.org/2000/svg" viewBox="0 0 48.414 50"><defs><style>.cls-1{fill:#e98024}</style></defs><g id="Group_42" data-name="Group 42" transform="translate(0 -3.36)"><path id="Path_84" data-name="Path 84" class="cls-1" d="M23.362 44.982a13.838 13.838 0 0 1-7.457 3.454v4.924h-3.967v-4.871a14.506 14.506 0 0 1-7.386-3.135A12.83 12.83 0 0 1 0 38.2l4.3-1.7a10.878 10.878 0 0 0 2.852 4.871 9.055 9.055 0 0 0 4.782 2.55V29.733l-.177-.053a22.256 22.256 0 0 1-7.687-4.694 9.1 9.1 0 0 1-2.6-6.624 9.434 9.434 0 0 1 1.275-4.729 10.42 10.42 0 0 1 3.649-3.7 12.12 12.12 0 0 1 5.544-1.753V3.36h3.95v4.924a11.726 11.726 0 0 1 9.612 7.634l-4.3 1.807a6.672 6.672 0 0 0-1.789-2.9 7.147 7.147 0 0 0-3.542-1.842v13.278a27.153 27.153 0 0 1 7.722 4.587 8.589 8.589 0 0 1 2.745 6.677 9.638 9.638 0 0 1-2.974 7.457zM7.669 21.922a13.155 13.155 0 0 0 4.269 2.763V12.818a7.232 7.232 0 0 0-4.109 1.9 4.836 4.836 0 0 0-1.559 3.644 4.99 4.99 0 0 0 1.399 3.56zM20.05 41.706a5.542 5.542 0 0 0 1.559-4.074 4.906 4.906 0 0 0-1.417-3.542 14.212 14.212 0 0 0-4.3-2.745v12.433a7.568 7.568 0 0 0 4.158-2.072z"/><path id="Path_85" data-name="Path 85" class="cls-1" d="M28.911 14.64l-8.144 5.848-2.977-4.423 13.247-9.5h3.657V53h-5.762V14.64z" transform="translate(13.719 -1.327)"/></g></svg>