<svg xmlns="http://www.w3.org/2000/svg" width="101.31" height="102" viewBox="0 0 101.31 102"><defs><style>.e04f372f-71b0-42f8-8c94-096a96ad925a{fill:none;stroke:#e58025;stroke-linecap:round;stroke-linejoin:round;stroke-width:2px}</style></defs><g id="b914136d-0b80-4701-af72-13c4da99fd6f" data-name="Layer 2"><g id="b84ad8d0-28d0-469c-afea-69879e44a846" data-name="Layer 1"><path class="e04f372f-71b0-42f8-8c94-096a96ad925a" d="M100.31 101H3a2 2 0 0 1-2-2V1"/><path class="e04f372f-71b0-42f8-8c94-096a96ad925a" d="M11.77 42.4l.28.27c7.68 7.53 29.46 28.71 29.46 28.71l12.7-11.67L66.27 72h17.19"/><path class="e04f372f-71b0-42f8-8c94-096a96ad925a" d="M11.64 75.27l16.54-16.72L40.91 46h23.76l18.72-18.81"/><path class="e04f372f-71b0-42f8-8c94-096a96ad925a" d="M83.46 41.61V27.12H68.97M74.91 82.35l10.01-10.46-10.47-10.02"/><path class="e04f372f-71b0-42f8-8c94-096a96ad925a" d="M100.31 101H3a2 2 0 0 1-2-2V1"/><path class="e04f372f-71b0-42f8-8c94-096a96ad925a" d="M11.77 42.4l.28.27c7.68 7.53 29.46 28.71 29.46 28.71l12.7-11.67L66.27 72h17.19"/><path class="e04f372f-71b0-42f8-8c94-096a96ad925a" d="M11.64 75.27l16.54-16.72L40.91 46h23.76l18.72-18.81"/><path class="e04f372f-71b0-42f8-8c94-096a96ad925a" d="M83.46 41.61V27.12H68.97M74.91 82.35l10.01-10.46-10.47-10.02"/></g></g></svg>