<svg xmlns="http://www.w3.org/2000/svg" width="99.32" height="100" viewBox="0 0 99.32 100"><defs><style>.bde60335-bb50-44ff-ba39-b7751c0e3a6f{fill:#e58025}</style></defs><g id="a4b2827a-2751-48d9-9ee7-2852b4b37b5e" data-name="Layer 2"><g id="eb9b8eed-0c7f-44d3-a865-46e563cc6fe9" data-name="Layer 1"><path class="bde60335-bb50-44ff-ba39-b7751c0e3a6f" d="M98.34 100H2.94A2.94 2.94 0 0 1 0 97.06V1a1 1 0 0 1 2 0v96.06a1 1 0 0 0 1 1h95.4a1 1 0 1 1 0 2z"/><path class="bde60335-bb50-44ff-ba39-b7751c0e3a6f" d="M81.83 71.53H65a1 1 0 0 1-.7-.3L53.11 59.9 41.36 70.7a1 1 0 0 1-1.35 0c-.21-.21-21.44-20.85-28.88-28.14l-.27-.27a1 1 0 1 1 1.37-1.4l.27.27c6.69 6.54 24.5 23.9 28.21 27.47l11.77-10.81a1 1 0 0 1 1.37 0l11.53 11.75h16.45a1 1 0 0 1 0 2z"/><path class="bde60335-bb50-44ff-ba39-b7751c0e3a6f" d="M11.42 74.78a1 1 0 0 1-.7-1.67l16.21-16.4L39.42 44.4a1 1 0 0 1 .69-.28H63L81.06 26a1 1 0 0 1 1.39 0 1 1 0 0 1 0 1.38L64.1 45.79a1 1 0 0 1-.7.29H40.51l-12.19 12-16.21 16.4a1 1 0 0 1-.69.3z"/><path class="bde60335-bb50-44ff-ba39-b7751c0e3a6f" d="M81.82 41.77a1 1 0 0 1-1-1v-13.2h-13.2a1 1 0 1 1 0-2h14.2a1 1 0 0 1 1 1v14.2a1 1 0 0 1-1 1zM73.44 81.72a1 1 0 0 1-.68-.27 1 1 0 0 1 0-1.39l9.14-9.55-9.55-9.14A1 1 0 1 1 73.67 60l10.26 9.82a1 1 0 0 1 0 1.38l-9.78 10.22a1 1 0 0 1-.71.3z"/><path class="bde60335-bb50-44ff-ba39-b7751c0e3a6f" d="M98.34 100H2.94A2.94 2.94 0 0 1 0 97.06V1a1 1 0 0 1 2 0v96.06a1 1 0 0 0 1 1h95.4a1 1 0 1 1 0 2z"/><path class="bde60335-bb50-44ff-ba39-b7751c0e3a6f" d="M81.83 71.53H65a1 1 0 0 1-.7-.3L53.11 59.9 41.36 70.7a1 1 0 0 1-1.35 0c-.21-.21-21.44-20.85-28.88-28.14l-.27-.27a1 1 0 1 1 1.37-1.4l.27.27c6.69 6.54 24.5 23.9 28.21 27.47l11.77-10.81a1 1 0 0 1 1.37 0l11.53 11.75h16.45a1 1 0 0 1 0 2z"/><path class="bde60335-bb50-44ff-ba39-b7751c0e3a6f" d="M11.42 74.78a1 1 0 0 1-.7-1.67l16.21-16.4L39.42 44.4a1 1 0 0 1 .69-.28H63L81.06 26a1 1 0 0 1 1.39 0 1 1 0 0 1 0 1.38L64.1 45.79a1 1 0 0 1-.7.29H40.51l-12.19 12-16.21 16.4a1 1 0 0 1-.69.3z"/><path class="bde60335-bb50-44ff-ba39-b7751c0e3a6f" d="M81.82 41.77a1 1 0 0 1-1-1v-13.2h-13.2a1 1 0 1 1 0-2h14.2a1 1 0 0 1 1 1v14.2a1 1 0 0 1-1 1zM73.44 81.72a1 1 0 0 1-.68-.27 1 1 0 0 1 0-1.39l9.14-9.55-9.55-9.14A1 1 0 1 1 73.67 60l10.26 9.82a1 1 0 0 1 0 1.38l-9.78 10.22a1 1 0 0 1-.71.3z"/><path class="bde60335-bb50-44ff-ba39-b7751c0e3a6f" d="M98.34 100H2.94A2.94 2.94 0 0 1 0 97.06V1a1 1 0 0 1 2 0v96.06a1 1 0 0 0 1 1h95.4a1 1 0 1 1 0 2z"/><path class="bde60335-bb50-44ff-ba39-b7751c0e3a6f" d="M81.83 71.53H65a1 1 0 0 1-.7-.3L53.11 59.9 41.36 70.7a1 1 0 0 1-1.35 0c-.21-.21-21.44-20.85-28.88-28.14l-.27-.27a1 1 0 1 1 1.37-1.4l.27.27c6.69 6.54 24.5 23.9 28.21 27.47l11.77-10.81a1 1 0 0 1 1.37 0l11.53 11.75h16.45a1 1 0 0 1 0 2z"/><path class="bde60335-bb50-44ff-ba39-b7751c0e3a6f" d="M11.42 74.78a1 1 0 0 1-.7-1.67l16.21-16.4L39.42 44.4a1 1 0 0 1 .69-.28H63L81.06 26a1 1 0 0 1 1.39 0 1 1 0 0 1 0 1.38L64.1 45.79a1 1 0 0 1-.7.29H40.51l-12.19 12-16.21 16.4a1 1 0 0 1-.69.3z"/><path class="bde60335-bb50-44ff-ba39-b7751c0e3a6f" d="M81.82 41.77a1 1 0 0 1-1-1v-13.2h-13.2a1 1 0 1 1 0-2h14.2a1 1 0 0 1 1 1v14.2a1 1 0 0 1-1 1zM73.44 81.72a1 1 0 0 1-.68-.27 1 1 0 0 1 0-1.39l9.14-9.55-9.55-9.14A1 1 0 1 1 73.67 60l10.26 9.82a1 1 0 0 1 0 1.38l-9.78 10.22a1 1 0 0 1-.71.3z"/><path class="bde60335-bb50-44ff-ba39-b7751c0e3a6f" d="M98.34 100H2.94A2.94 2.94 0 0 1 0 97.06V1a1 1 0 0 1 2 0v96.06a1 1 0 0 0 1 1h95.4a1 1 0 1 1 0 2z"/><path class="bde60335-bb50-44ff-ba39-b7751c0e3a6f" d="M81.83 71.53H65a1 1 0 0 1-.7-.3L53.11 59.9 41.36 70.7a1 1 0 0 1-1.35 0c-.21-.21-21.44-20.85-28.88-28.14l-.27-.27a1 1 0 1 1 1.37-1.4l.27.27c6.69 6.54 24.5 23.9 28.21 27.47l11.77-10.81a1 1 0 0 1 1.37 0l11.53 11.75h16.45a1 1 0 0 1 0 2z"/><path class="bde60335-bb50-44ff-ba39-b7751c0e3a6f" d="M11.42 74.78a1 1 0 0 1-.7-1.67l16.21-16.4L39.42 44.4a1 1 0 0 1 .69-.28H63L81.06 26a1 1 0 0 1 1.39 0 1 1 0 0 1 0 1.38L64.1 45.79a1 1 0 0 1-.7.29H40.51l-12.19 12-16.21 16.4a1 1 0 0 1-.69.3z"/><path class="bde60335-bb50-44ff-ba39-b7751c0e3a6f" d="M81.82 41.77a1 1 0 0 1-1-1v-13.2h-13.2a1 1 0 1 1 0-2h14.2a1 1 0 0 1 1 1v14.2a1 1 0 0 1-1 1zM73.44 81.72a1 1 0 0 1-.68-.27 1 1 0 0 1 0-1.39l9.14-9.55-9.55-9.14A1 1 0 1 1 73.67 60l10.26 9.82a1 1 0 0 1 0 1.38l-9.78 10.22a1 1 0 0 1-.71.3z"/></g></g></svg>